<mxfile host="app.diagrams.net" agent="Mozilla/5.0 (Windows NT 10.0; Win64; x64) AppleWebKit/537.36 (KHTML, like Gecko) Chrome/136.0.0.0 Safari/537.36" version="26.3.0">
  <diagram name="第 1 页" id="RTTNO_SVNwc2rrNWSTHs">
    <mxGraphModel dx="815" dy="1604" grid="1" gridSize="10" guides="1" tooltips="1" connect="1" arrows="1" fold="1" page="1" pageScale="1" pageWidth="827" pageHeight="1169" math="1" shadow="0">
      <root>
        <mxCell id="0" />
        <mxCell id="1" parent="0" />
        <mxCell id="D1OQs9bCTMTkSIJRtyUW-12" value="+" style="ellipse;aspect=fixed;shadow=0;rotation=0;html=1;fontStyle=1;fontFamily=Times New Roman;fontSize=18;" vertex="1" parent="1">
          <mxGeometry x="754.3050000000001" y="-658.9550000000002" width="18.95734597156398" height="18.95734597156398" as="geometry" />
        </mxCell>
        <mxCell id="D1OQs9bCTMTkSIJRtyUW-13" value="GCN layers" style="rounded=1;fillColor=#f5f5f5;strokeColor=#666666;fontSize=18;fontStyle=1;fontColor=#333333;html=1;fontFamily=Times New Roman;" vertex="1" parent="1">
          <mxGeometry x="1170" y="-434.01" width="254.75" height="74.01" as="geometry" />
        </mxCell>
        <mxCell id="D1OQs9bCTMTkSIJRtyUW-17" value="" style="group;html=1;fontSize=18;fontFamily=Times New Roman;" vertex="1" connectable="0" parent="1">
          <mxGeometry x="1384.98" y="-712.935" width="141.97857048684" height="158.866370131809" as="geometry" />
        </mxCell>
        <mxCell id="D1OQs9bCTMTkSIJRtyUW-18" value="" style="group;html=1;fontFamily=Times New Roman;fontSize=18;" vertex="1" connectable="0" parent="D1OQs9bCTMTkSIJRtyUW-17">
          <mxGeometry y="1.9349999999999454" width="100" height="100" as="geometry" />
        </mxCell>
        <mxCell id="D1OQs9bCTMTkSIJRtyUW-19" value="" style="group;html=1;fontFamily=Times New Roman;fontSize=18;" vertex="1" connectable="0" parent="D1OQs9bCTMTkSIJRtyUW-18">
          <mxGeometry width="97.99" height="100" as="geometry" />
        </mxCell>
        <mxCell id="D1OQs9bCTMTkSIJRtyUW-20" value="" style="group;html=1;fontFamily=Times New Roman;fontSize=18;" vertex="1" connectable="0" parent="D1OQs9bCTMTkSIJRtyUW-19">
          <mxGeometry x="0.2288483433075415" y="2.8605482717520863" width="97.76115165669248" height="95.35160905840287" as="geometry" />
        </mxCell>
        <mxCell id="D1OQs9bCTMTkSIJRtyUW-21" value="" style="shape=table;startSize=0;container=1;collapsible=0;childLayout=tableLayout;fontSize=18;html=1;fontFamily=Times New Roman;" vertex="1" parent="D1OQs9bCTMTkSIJRtyUW-20">
          <mxGeometry y="-10.476758045292014" width="97.35347637814432" height="94.35160905840287" as="geometry" />
        </mxCell>
        <mxCell id="D1OQs9bCTMTkSIJRtyUW-22" value="" style="shape=tableRow;horizontal=0;startSize=0;swimlaneHead=0;swimlaneBody=0;strokeColor=inherit;top=0;left=0;bottom=0;right=0;collapsible=0;dropTarget=0;fillColor=none;points=[[0,0.5],[1,0.5]];portConstraint=eastwest;fontSize=18;html=1;fontFamily=Times New Roman;" vertex="1" parent="D1OQs9bCTMTkSIJRtyUW-21">
          <mxGeometry width="97.35347637814432" height="12" as="geometry" />
        </mxCell>
        <mxCell id="D1OQs9bCTMTkSIJRtyUW-23" value="" style="shape=partialRectangle;connectable=0;strokeColor=default;overflow=hidden;fillColor=#FFCC99;top=0;left=0;bottom=0;right=0;pointerEvents=1;fontSize=18;html=1;fontFamily=Times New Roman;" vertex="1" parent="D1OQs9bCTMTkSIJRtyUW-22">
          <mxGeometry width="13" height="12" as="geometry">
            <mxRectangle width="13" height="12" as="alternateBounds" />
          </mxGeometry>
        </mxCell>
        <mxCell id="D1OQs9bCTMTkSIJRtyUW-24" value="" style="shape=partialRectangle;connectable=0;strokeColor=inherit;overflow=hidden;fillColor=none;top=0;left=0;bottom=0;right=0;pointerEvents=1;fontSize=18;html=1;fontFamily=Times New Roman;" vertex="1" parent="D1OQs9bCTMTkSIJRtyUW-22">
          <mxGeometry x="13" width="12" height="12" as="geometry">
            <mxRectangle width="12" height="12" as="alternateBounds" />
          </mxGeometry>
        </mxCell>
        <mxCell id="D1OQs9bCTMTkSIJRtyUW-25" value="" style="shape=partialRectangle;connectable=0;strokeColor=inherit;overflow=hidden;fillColor=none;top=0;left=0;bottom=0;right=0;pointerEvents=1;fontSize=18;html=1;fontFamily=Times New Roman;" vertex="1" parent="D1OQs9bCTMTkSIJRtyUW-22">
          <mxGeometry x="25" width="11" height="12" as="geometry">
            <mxRectangle width="11" height="12" as="alternateBounds" />
          </mxGeometry>
        </mxCell>
        <mxCell id="D1OQs9bCTMTkSIJRtyUW-26" value="" style="shape=partialRectangle;connectable=0;strokeColor=inherit;overflow=hidden;fillColor=none;top=0;left=0;bottom=0;right=0;pointerEvents=1;fontSize=18;html=1;fontFamily=Times New Roman;" vertex="1" parent="D1OQs9bCTMTkSIJRtyUW-22">
          <mxGeometry x="36" width="12" height="12" as="geometry">
            <mxRectangle width="12" height="12" as="alternateBounds" />
          </mxGeometry>
        </mxCell>
        <mxCell id="D1OQs9bCTMTkSIJRtyUW-27" value="" style="shape=partialRectangle;connectable=0;strokeColor=inherit;overflow=hidden;fillColor=none;top=0;left=0;bottom=0;right=0;pointerEvents=1;fontSize=18;html=1;fontFamily=Times New Roman;" vertex="1" parent="D1OQs9bCTMTkSIJRtyUW-22">
          <mxGeometry x="48" width="12" height="12" as="geometry">
            <mxRectangle width="12" height="12" as="alternateBounds" />
          </mxGeometry>
        </mxCell>
        <mxCell id="D1OQs9bCTMTkSIJRtyUW-28" value="" style="shape=partialRectangle;connectable=0;strokeColor=inherit;overflow=hidden;fillColor=none;top=0;left=0;bottom=0;right=0;pointerEvents=1;fontSize=18;html=1;fontFamily=Times New Roman;" vertex="1" parent="D1OQs9bCTMTkSIJRtyUW-22">
          <mxGeometry x="60" width="12" height="12" as="geometry">
            <mxRectangle width="12" height="12" as="alternateBounds" />
          </mxGeometry>
        </mxCell>
        <mxCell id="D1OQs9bCTMTkSIJRtyUW-29" value="" style="shape=partialRectangle;connectable=0;strokeColor=inherit;overflow=hidden;fillColor=none;top=0;left=0;bottom=0;right=0;pointerEvents=1;fontSize=18;html=1;fontFamily=Times New Roman;" vertex="1" parent="D1OQs9bCTMTkSIJRtyUW-22">
          <mxGeometry x="72" width="13" height="12" as="geometry">
            <mxRectangle width="13" height="12" as="alternateBounds" />
          </mxGeometry>
        </mxCell>
        <mxCell id="D1OQs9bCTMTkSIJRtyUW-30" value="" style="shape=partialRectangle;connectable=0;strokeColor=inherit;overflow=hidden;fillColor=none;top=0;left=0;bottom=0;right=0;pointerEvents=1;fontSize=18;html=1;fontFamily=Times New Roman;" vertex="1" parent="D1OQs9bCTMTkSIJRtyUW-22">
          <mxGeometry x="85" width="12" height="12" as="geometry">
            <mxRectangle width="12" height="12" as="alternateBounds" />
          </mxGeometry>
        </mxCell>
        <mxCell id="D1OQs9bCTMTkSIJRtyUW-31" value="" style="shape=tableRow;horizontal=0;startSize=0;swimlaneHead=0;swimlaneBody=0;strokeColor=inherit;top=0;left=0;bottom=0;right=0;collapsible=0;dropTarget=0;fillColor=none;points=[[0,0.5],[1,0.5]];portConstraint=eastwest;fontSize=18;html=1;fontFamily=Times New Roman;" vertex="1" parent="D1OQs9bCTMTkSIJRtyUW-21">
          <mxGeometry y="12" width="97.35347637814432" height="12" as="geometry" />
        </mxCell>
        <mxCell id="D1OQs9bCTMTkSIJRtyUW-32" value="" style="shape=partialRectangle;connectable=0;strokeColor=inherit;overflow=hidden;fillColor=none;top=0;left=0;bottom=0;right=0;pointerEvents=1;fontSize=18;html=1;fontFamily=Times New Roman;" vertex="1" parent="D1OQs9bCTMTkSIJRtyUW-31">
          <mxGeometry width="13" height="12" as="geometry">
            <mxRectangle width="13" height="12" as="alternateBounds" />
          </mxGeometry>
        </mxCell>
        <mxCell id="D1OQs9bCTMTkSIJRtyUW-33" value="" style="shape=partialRectangle;connectable=0;strokeColor=default;overflow=hidden;fillColor=#DBDBDB;top=0;left=0;bottom=0;right=0;pointerEvents=1;fontSize=18;html=1;fontFamily=Times New Roman;" vertex="1" parent="D1OQs9bCTMTkSIJRtyUW-31">
          <mxGeometry x="13" width="12" height="12" as="geometry">
            <mxRectangle width="12" height="12" as="alternateBounds" />
          </mxGeometry>
        </mxCell>
        <mxCell id="D1OQs9bCTMTkSIJRtyUW-34" value="" style="shape=partialRectangle;connectable=0;strokeColor=inherit;overflow=hidden;fillColor=none;top=0;left=0;bottom=0;right=0;pointerEvents=1;fontSize=18;html=1;fontFamily=Times New Roman;" vertex="1" parent="D1OQs9bCTMTkSIJRtyUW-31">
          <mxGeometry x="25" width="11" height="12" as="geometry">
            <mxRectangle width="11" height="12" as="alternateBounds" />
          </mxGeometry>
        </mxCell>
        <mxCell id="D1OQs9bCTMTkSIJRtyUW-35" value="" style="shape=partialRectangle;connectable=0;strokeColor=inherit;overflow=hidden;fillColor=none;top=0;left=0;bottom=0;right=0;pointerEvents=1;fontSize=18;html=1;fontFamily=Times New Roman;" vertex="1" parent="D1OQs9bCTMTkSIJRtyUW-31">
          <mxGeometry x="36" width="12" height="12" as="geometry">
            <mxRectangle width="12" height="12" as="alternateBounds" />
          </mxGeometry>
        </mxCell>
        <mxCell id="D1OQs9bCTMTkSIJRtyUW-36" value="" style="shape=partialRectangle;connectable=0;strokeColor=inherit;overflow=hidden;fillColor=none;top=0;left=0;bottom=0;right=0;pointerEvents=1;fontSize=18;html=1;fontFamily=Times New Roman;" vertex="1" parent="D1OQs9bCTMTkSIJRtyUW-31">
          <mxGeometry x="48" width="12" height="12" as="geometry">
            <mxRectangle width="12" height="12" as="alternateBounds" />
          </mxGeometry>
        </mxCell>
        <mxCell id="D1OQs9bCTMTkSIJRtyUW-37" value="" style="shape=partialRectangle;connectable=0;strokeColor=inherit;overflow=hidden;fillColor=none;top=0;left=0;bottom=0;right=0;pointerEvents=1;fontSize=18;html=1;fontFamily=Times New Roman;" vertex="1" parent="D1OQs9bCTMTkSIJRtyUW-31">
          <mxGeometry x="60" width="12" height="12" as="geometry">
            <mxRectangle width="12" height="12" as="alternateBounds" />
          </mxGeometry>
        </mxCell>
        <mxCell id="D1OQs9bCTMTkSIJRtyUW-38" value="" style="shape=partialRectangle;connectable=0;strokeColor=inherit;overflow=hidden;fillColor=none;top=0;left=0;bottom=0;right=0;pointerEvents=1;fontSize=18;html=1;fontFamily=Times New Roman;" vertex="1" parent="D1OQs9bCTMTkSIJRtyUW-31">
          <mxGeometry x="72" width="13" height="12" as="geometry">
            <mxRectangle width="13" height="12" as="alternateBounds" />
          </mxGeometry>
        </mxCell>
        <mxCell id="D1OQs9bCTMTkSIJRtyUW-39" value="" style="shape=partialRectangle;connectable=0;strokeColor=inherit;overflow=hidden;fillColor=none;top=0;left=0;bottom=0;right=0;pointerEvents=1;fontSize=18;html=1;fontFamily=Times New Roman;" vertex="1" parent="D1OQs9bCTMTkSIJRtyUW-31">
          <mxGeometry x="85" width="12" height="12" as="geometry">
            <mxRectangle width="12" height="12" as="alternateBounds" />
          </mxGeometry>
        </mxCell>
        <mxCell id="D1OQs9bCTMTkSIJRtyUW-40" value="" style="shape=tableRow;horizontal=0;startSize=0;swimlaneHead=0;swimlaneBody=0;strokeColor=inherit;top=0;left=0;bottom=0;right=0;collapsible=0;dropTarget=0;fillColor=none;points=[[0,0.5],[1,0.5]];portConstraint=eastwest;fontSize=18;html=1;fontFamily=Times New Roman;" vertex="1" parent="D1OQs9bCTMTkSIJRtyUW-21">
          <mxGeometry y="24" width="97.35347637814432" height="11" as="geometry" />
        </mxCell>
        <mxCell id="D1OQs9bCTMTkSIJRtyUW-41" value="" style="shape=partialRectangle;connectable=0;strokeColor=inherit;overflow=hidden;fillColor=#FFE6CC;top=0;left=0;bottom=0;right=0;pointerEvents=1;fontSize=18;html=1;fontFamily=Times New Roman;" vertex="1" parent="D1OQs9bCTMTkSIJRtyUW-40">
          <mxGeometry width="13" height="11" as="geometry">
            <mxRectangle width="13" height="11" as="alternateBounds" />
          </mxGeometry>
        </mxCell>
        <mxCell id="D1OQs9bCTMTkSIJRtyUW-42" value="" style="shape=partialRectangle;connectable=0;strokeColor=inherit;overflow=hidden;fillColor=none;top=0;left=0;bottom=0;right=0;pointerEvents=1;fontSize=18;html=1;fontFamily=Times New Roman;" vertex="1" parent="D1OQs9bCTMTkSIJRtyUW-40">
          <mxGeometry x="13" width="12" height="11" as="geometry">
            <mxRectangle width="12" height="11" as="alternateBounds" />
          </mxGeometry>
        </mxCell>
        <mxCell id="D1OQs9bCTMTkSIJRtyUW-43" value="" style="shape=partialRectangle;connectable=0;strokeColor=#b85450;overflow=hidden;fillColor=#DBDBDB;top=0;left=0;bottom=0;right=0;pointerEvents=1;fontSize=18;html=1;fontFamily=Times New Roman;" vertex="1" parent="D1OQs9bCTMTkSIJRtyUW-40">
          <mxGeometry x="25" width="11" height="11" as="geometry">
            <mxRectangle width="11" height="11" as="alternateBounds" />
          </mxGeometry>
        </mxCell>
        <mxCell id="D1OQs9bCTMTkSIJRtyUW-44" value="" style="shape=partialRectangle;connectable=0;strokeColor=#b85450;overflow=hidden;fillColor=#DBDBDB;top=0;left=0;bottom=0;right=0;pointerEvents=1;fontSize=18;html=1;fontFamily=Times New Roman;" vertex="1" parent="D1OQs9bCTMTkSIJRtyUW-40">
          <mxGeometry x="36" width="12" height="11" as="geometry">
            <mxRectangle width="12" height="11" as="alternateBounds" />
          </mxGeometry>
        </mxCell>
        <mxCell id="D1OQs9bCTMTkSIJRtyUW-45" value="" style="shape=partialRectangle;connectable=0;strokeColor=inherit;overflow=hidden;fillColor=none;top=0;left=0;bottom=0;right=0;pointerEvents=1;fontSize=18;html=1;fontFamily=Times New Roman;" vertex="1" parent="D1OQs9bCTMTkSIJRtyUW-40">
          <mxGeometry x="48" width="12" height="11" as="geometry">
            <mxRectangle width="12" height="11" as="alternateBounds" />
          </mxGeometry>
        </mxCell>
        <mxCell id="D1OQs9bCTMTkSIJRtyUW-46" value="" style="shape=partialRectangle;connectable=0;strokeColor=inherit;overflow=hidden;fillColor=none;top=0;left=0;bottom=0;right=0;pointerEvents=1;fontSize=18;html=1;fontFamily=Times New Roman;" vertex="1" parent="D1OQs9bCTMTkSIJRtyUW-40">
          <mxGeometry x="60" width="12" height="11" as="geometry">
            <mxRectangle width="12" height="11" as="alternateBounds" />
          </mxGeometry>
        </mxCell>
        <mxCell id="D1OQs9bCTMTkSIJRtyUW-47" value="" style="shape=partialRectangle;connectable=0;strokeColor=inherit;overflow=hidden;fillColor=none;top=0;left=0;bottom=0;right=0;pointerEvents=1;fontSize=18;html=1;fontFamily=Times New Roman;" vertex="1" parent="D1OQs9bCTMTkSIJRtyUW-40">
          <mxGeometry x="72" width="13" height="11" as="geometry">
            <mxRectangle width="13" height="11" as="alternateBounds" />
          </mxGeometry>
        </mxCell>
        <mxCell id="D1OQs9bCTMTkSIJRtyUW-48" value="" style="shape=partialRectangle;connectable=0;strokeColor=inherit;overflow=hidden;fillColor=none;top=0;left=0;bottom=0;right=0;pointerEvents=1;fontSize=18;html=1;fontFamily=Times New Roman;" vertex="1" parent="D1OQs9bCTMTkSIJRtyUW-40">
          <mxGeometry x="85" width="12" height="11" as="geometry">
            <mxRectangle width="12" height="11" as="alternateBounds" />
          </mxGeometry>
        </mxCell>
        <mxCell id="D1OQs9bCTMTkSIJRtyUW-49" value="" style="shape=tableRow;horizontal=0;startSize=0;swimlaneHead=0;swimlaneBody=0;strokeColor=inherit;top=0;left=0;bottom=0;right=0;collapsible=0;dropTarget=0;fillColor=none;points=[[0,0.5],[1,0.5]];portConstraint=eastwest;fontSize=18;html=1;fontFamily=Times New Roman;" vertex="1" parent="D1OQs9bCTMTkSIJRtyUW-21">
          <mxGeometry y="35" width="97.35347637814432" height="12" as="geometry" />
        </mxCell>
        <mxCell id="D1OQs9bCTMTkSIJRtyUW-50" value="" style="shape=partialRectangle;connectable=0;strokeColor=#b85450;overflow=hidden;fillColor=#FF9933;top=0;left=0;bottom=0;right=0;pointerEvents=1;fontSize=18;html=1;fontFamily=Times New Roman;" vertex="1" parent="D1OQs9bCTMTkSIJRtyUW-49">
          <mxGeometry width="13" height="12" as="geometry">
            <mxRectangle width="13" height="12" as="alternateBounds" />
          </mxGeometry>
        </mxCell>
        <mxCell id="D1OQs9bCTMTkSIJRtyUW-51" value="" style="shape=partialRectangle;connectable=0;strokeColor=#b85450;overflow=hidden;fillColor=#DBDBDB;top=0;left=0;bottom=0;right=0;pointerEvents=1;fontSize=18;html=1;fontFamily=Times New Roman;" vertex="1" parent="D1OQs9bCTMTkSIJRtyUW-49">
          <mxGeometry x="13" width="12" height="12" as="geometry">
            <mxRectangle width="12" height="12" as="alternateBounds" />
          </mxGeometry>
        </mxCell>
        <mxCell id="D1OQs9bCTMTkSIJRtyUW-52" value="" style="shape=partialRectangle;connectable=0;strokeColor=#b85450;overflow=hidden;fillColor=#DBDBDB;top=0;left=0;bottom=0;right=0;pointerEvents=1;fontSize=18;html=1;fontFamily=Times New Roman;" vertex="1" parent="D1OQs9bCTMTkSIJRtyUW-49">
          <mxGeometry x="25" width="11" height="12" as="geometry">
            <mxRectangle width="11" height="12" as="alternateBounds" />
          </mxGeometry>
        </mxCell>
        <mxCell id="D1OQs9bCTMTkSIJRtyUW-53" value="" style="shape=partialRectangle;connectable=0;strokeColor=#b85450;overflow=hidden;fillColor=#DBDBDB;top=0;left=0;bottom=0;right=0;pointerEvents=1;fontSize=18;html=1;fontFamily=Times New Roman;" vertex="1" parent="D1OQs9bCTMTkSIJRtyUW-49">
          <mxGeometry x="36" width="12" height="12" as="geometry">
            <mxRectangle width="12" height="12" as="alternateBounds" />
          </mxGeometry>
        </mxCell>
        <mxCell id="D1OQs9bCTMTkSIJRtyUW-54" value="" style="shape=partialRectangle;connectable=0;strokeColor=#b85450;overflow=hidden;fillColor=#DBDBDB;top=0;left=0;bottom=0;right=0;pointerEvents=1;fontSize=18;html=1;fontFamily=Times New Roman;" vertex="1" parent="D1OQs9bCTMTkSIJRtyUW-49">
          <mxGeometry x="48" width="12" height="12" as="geometry">
            <mxRectangle width="12" height="12" as="alternateBounds" />
          </mxGeometry>
        </mxCell>
        <mxCell id="D1OQs9bCTMTkSIJRtyUW-55" value="" style="shape=partialRectangle;connectable=0;strokeColor=inherit;overflow=hidden;fillColor=none;top=0;left=0;bottom=0;right=0;pointerEvents=1;fontSize=18;html=1;fontFamily=Times New Roman;" vertex="1" parent="D1OQs9bCTMTkSIJRtyUW-49">
          <mxGeometry x="60" width="12" height="12" as="geometry">
            <mxRectangle width="12" height="12" as="alternateBounds" />
          </mxGeometry>
        </mxCell>
        <mxCell id="D1OQs9bCTMTkSIJRtyUW-56" value="" style="shape=partialRectangle;connectable=0;strokeColor=inherit;overflow=hidden;fillColor=none;top=0;left=0;bottom=0;right=0;pointerEvents=1;fontSize=18;html=1;fontFamily=Times New Roman;" vertex="1" parent="D1OQs9bCTMTkSIJRtyUW-49">
          <mxGeometry x="72" width="13" height="12" as="geometry">
            <mxRectangle width="13" height="12" as="alternateBounds" />
          </mxGeometry>
        </mxCell>
        <mxCell id="D1OQs9bCTMTkSIJRtyUW-57" value="" style="shape=partialRectangle;connectable=0;strokeColor=inherit;overflow=hidden;fillColor=none;top=0;left=0;bottom=0;right=0;pointerEvents=1;fontSize=18;html=1;fontFamily=Times New Roman;" vertex="1" parent="D1OQs9bCTMTkSIJRtyUW-49">
          <mxGeometry x="85" width="12" height="12" as="geometry">
            <mxRectangle width="12" height="12" as="alternateBounds" />
          </mxGeometry>
        </mxCell>
        <mxCell id="D1OQs9bCTMTkSIJRtyUW-58" value="" style="shape=tableRow;horizontal=0;startSize=0;swimlaneHead=0;swimlaneBody=0;strokeColor=inherit;top=0;left=0;bottom=0;right=0;collapsible=0;dropTarget=0;fillColor=none;points=[[0,0.5],[1,0.5]];portConstraint=eastwest;fontSize=18;html=1;fontFamily=Times New Roman;" vertex="1" parent="D1OQs9bCTMTkSIJRtyUW-21">
          <mxGeometry y="47" width="97.35347637814432" height="12" as="geometry" />
        </mxCell>
        <mxCell id="D1OQs9bCTMTkSIJRtyUW-59" value="" style="shape=partialRectangle;connectable=0;strokeColor=inherit;overflow=hidden;fillColor=none;top=0;left=0;bottom=0;right=0;pointerEvents=1;fontSize=18;html=1;fontFamily=Times New Roman;" vertex="1" parent="D1OQs9bCTMTkSIJRtyUW-58">
          <mxGeometry width="13" height="12" as="geometry">
            <mxRectangle width="13" height="12" as="alternateBounds" />
          </mxGeometry>
        </mxCell>
        <mxCell id="D1OQs9bCTMTkSIJRtyUW-60" value="" style="shape=partialRectangle;connectable=0;strokeColor=inherit;overflow=hidden;fillColor=none;top=0;left=0;bottom=0;right=0;pointerEvents=1;fontSize=18;html=1;fontFamily=Times New Roman;" vertex="1" parent="D1OQs9bCTMTkSIJRtyUW-58">
          <mxGeometry x="13" width="12" height="12" as="geometry">
            <mxRectangle width="12" height="12" as="alternateBounds" />
          </mxGeometry>
        </mxCell>
        <mxCell id="D1OQs9bCTMTkSIJRtyUW-61" value="" style="shape=partialRectangle;connectable=0;strokeColor=inherit;overflow=hidden;fillColor=none;top=0;left=0;bottom=0;right=0;pointerEvents=1;fontSize=18;html=1;fontFamily=Times New Roman;" vertex="1" parent="D1OQs9bCTMTkSIJRtyUW-58">
          <mxGeometry x="25" width="11" height="12" as="geometry">
            <mxRectangle width="11" height="12" as="alternateBounds" />
          </mxGeometry>
        </mxCell>
        <mxCell id="D1OQs9bCTMTkSIJRtyUW-62" value="" style="shape=partialRectangle;connectable=0;strokeColor=inherit;overflow=hidden;fillColor=#DBDBDB;top=0;left=0;bottom=0;right=0;pointerEvents=1;fontSize=18;html=1;fontFamily=Times New Roman;" vertex="1" parent="D1OQs9bCTMTkSIJRtyUW-58">
          <mxGeometry x="36" width="12" height="12" as="geometry">
            <mxRectangle width="12" height="12" as="alternateBounds" />
          </mxGeometry>
        </mxCell>
        <mxCell id="D1OQs9bCTMTkSIJRtyUW-63" value="" style="shape=partialRectangle;connectable=0;strokeColor=default;overflow=hidden;fillColor=#DBDBDB;top=0;left=0;bottom=0;right=0;pointerEvents=1;fontSize=18;html=1;fontFamily=Times New Roman;" vertex="1" parent="D1OQs9bCTMTkSIJRtyUW-58">
          <mxGeometry x="48" width="12" height="12" as="geometry">
            <mxRectangle width="12" height="12" as="alternateBounds" />
          </mxGeometry>
        </mxCell>
        <mxCell id="D1OQs9bCTMTkSIJRtyUW-64" value="" style="shape=partialRectangle;connectable=0;strokeColor=inherit;overflow=hidden;fillColor=none;top=0;left=0;bottom=0;right=0;pointerEvents=1;fontSize=18;html=1;fontFamily=Times New Roman;" vertex="1" parent="D1OQs9bCTMTkSIJRtyUW-58">
          <mxGeometry x="60" width="12" height="12" as="geometry">
            <mxRectangle width="12" height="12" as="alternateBounds" />
          </mxGeometry>
        </mxCell>
        <mxCell id="D1OQs9bCTMTkSIJRtyUW-65" value="" style="shape=partialRectangle;connectable=0;strokeColor=inherit;overflow=hidden;fillColor=#DBDBDB;top=0;left=0;bottom=0;right=0;pointerEvents=1;fontSize=18;strokeWidth=3;html=1;fontFamily=Times New Roman;" vertex="1" parent="D1OQs9bCTMTkSIJRtyUW-58">
          <mxGeometry x="72" width="13" height="12" as="geometry">
            <mxRectangle width="13" height="12" as="alternateBounds" />
          </mxGeometry>
        </mxCell>
        <mxCell id="D1OQs9bCTMTkSIJRtyUW-66" value="" style="shape=partialRectangle;connectable=0;strokeColor=inherit;overflow=hidden;fillColor=#DBDBDB;top=0;left=0;bottom=0;right=0;pointerEvents=1;fontSize=18;html=1;fontFamily=Times New Roman;" vertex="1" parent="D1OQs9bCTMTkSIJRtyUW-58">
          <mxGeometry x="85" width="12" height="12" as="geometry">
            <mxRectangle width="12" height="12" as="alternateBounds" />
          </mxGeometry>
        </mxCell>
        <mxCell id="D1OQs9bCTMTkSIJRtyUW-67" value="" style="shape=tableRow;horizontal=0;startSize=0;swimlaneHead=0;swimlaneBody=0;strokeColor=inherit;top=0;left=0;bottom=0;right=0;collapsible=0;dropTarget=0;fillColor=none;points=[[0,0.5],[1,0.5]];portConstraint=eastwest;fontSize=18;html=1;fontFamily=Times New Roman;" vertex="1" parent="D1OQs9bCTMTkSIJRtyUW-21">
          <mxGeometry y="59" width="97.35347637814432" height="12" as="geometry" />
        </mxCell>
        <mxCell id="D1OQs9bCTMTkSIJRtyUW-68" value="" style="shape=partialRectangle;connectable=0;strokeColor=inherit;overflow=hidden;fillColor=none;top=0;left=0;bottom=0;right=0;pointerEvents=1;fontSize=18;html=1;fontFamily=Times New Roman;" vertex="1" parent="D1OQs9bCTMTkSIJRtyUW-67">
          <mxGeometry width="13" height="12" as="geometry">
            <mxRectangle width="13" height="12" as="alternateBounds" />
          </mxGeometry>
        </mxCell>
        <mxCell id="D1OQs9bCTMTkSIJRtyUW-69" value="" style="shape=partialRectangle;connectable=0;strokeColor=inherit;overflow=hidden;fillColor=none;top=0;left=0;bottom=0;right=0;pointerEvents=1;fontSize=18;html=1;fontFamily=Times New Roman;" vertex="1" parent="D1OQs9bCTMTkSIJRtyUW-67">
          <mxGeometry x="13" width="12" height="12" as="geometry">
            <mxRectangle width="12" height="12" as="alternateBounds" />
          </mxGeometry>
        </mxCell>
        <mxCell id="D1OQs9bCTMTkSIJRtyUW-70" value="" style="shape=partialRectangle;connectable=0;strokeColor=inherit;overflow=hidden;fillColor=none;top=0;left=0;bottom=0;right=0;pointerEvents=1;fontSize=18;html=1;fontFamily=Times New Roman;" vertex="1" parent="D1OQs9bCTMTkSIJRtyUW-67">
          <mxGeometry x="25" width="11" height="12" as="geometry">
            <mxRectangle width="11" height="12" as="alternateBounds" />
          </mxGeometry>
        </mxCell>
        <mxCell id="D1OQs9bCTMTkSIJRtyUW-71" value="" style="shape=partialRectangle;connectable=0;strokeColor=inherit;overflow=hidden;fillColor=none;top=0;left=0;bottom=0;right=0;pointerEvents=1;fontSize=18;html=1;fontFamily=Times New Roman;" vertex="1" parent="D1OQs9bCTMTkSIJRtyUW-67">
          <mxGeometry x="36" width="12" height="12" as="geometry">
            <mxRectangle width="12" height="12" as="alternateBounds" />
          </mxGeometry>
        </mxCell>
        <mxCell id="D1OQs9bCTMTkSIJRtyUW-72" value="" style="shape=partialRectangle;connectable=0;strokeColor=inherit;overflow=hidden;fillColor=none;top=0;left=0;bottom=0;right=0;pointerEvents=1;fontSize=18;html=1;fontFamily=Times New Roman;" vertex="1" parent="D1OQs9bCTMTkSIJRtyUW-67">
          <mxGeometry x="48" width="12" height="12" as="geometry">
            <mxRectangle width="12" height="12" as="alternateBounds" />
          </mxGeometry>
        </mxCell>
        <mxCell id="D1OQs9bCTMTkSIJRtyUW-73" value="" style="shape=partialRectangle;connectable=0;strokeColor=default;overflow=hidden;fillColor=#DBDBDB;top=0;left=0;bottom=0;right=0;pointerEvents=1;fontSize=18;perimeterSpacing=1;strokeWidth=3;html=1;fontFamily=Times New Roman;" vertex="1" parent="D1OQs9bCTMTkSIJRtyUW-67">
          <mxGeometry x="60" width="12" height="12" as="geometry">
            <mxRectangle width="12" height="12" as="alternateBounds" />
          </mxGeometry>
        </mxCell>
        <mxCell id="D1OQs9bCTMTkSIJRtyUW-74" value="" style="shape=partialRectangle;connectable=0;strokeColor=default;overflow=hidden;fillColor=#DBDBDB;top=0;left=0;bottom=0;right=0;pointerEvents=1;fontSize=18;shadow=0;dashed=1;dashPattern=1 2;gradientColor=none;html=1;fontFamily=Times New Roman;" vertex="1" parent="D1OQs9bCTMTkSIJRtyUW-67">
          <mxGeometry x="72" width="13" height="12" as="geometry">
            <mxRectangle width="13" height="12" as="alternateBounds" />
          </mxGeometry>
        </mxCell>
        <mxCell id="D1OQs9bCTMTkSIJRtyUW-75" value="" style="shape=partialRectangle;connectable=0;strokeColor=inherit;overflow=hidden;fillColor=none;top=0;left=0;bottom=0;right=0;pointerEvents=1;fontSize=18;html=1;fontFamily=Times New Roman;" vertex="1" parent="D1OQs9bCTMTkSIJRtyUW-67">
          <mxGeometry x="85" width="12" height="12" as="geometry">
            <mxRectangle width="12" height="12" as="alternateBounds" />
          </mxGeometry>
        </mxCell>
        <mxCell id="D1OQs9bCTMTkSIJRtyUW-76" value="" style="shape=tableRow;horizontal=0;startSize=0;swimlaneHead=0;swimlaneBody=0;strokeColor=inherit;top=0;left=0;bottom=0;right=0;collapsible=0;dropTarget=0;fillColor=none;points=[[0,0.5],[1,0.5]];portConstraint=eastwest;fontSize=18;html=1;fontFamily=Times New Roman;" vertex="1" parent="D1OQs9bCTMTkSIJRtyUW-21">
          <mxGeometry y="71" width="97.35347637814432" height="13" as="geometry" />
        </mxCell>
        <mxCell id="D1OQs9bCTMTkSIJRtyUW-77" value="" style="shape=partialRectangle;connectable=0;strokeColor=inherit;overflow=hidden;fillColor=#FFE6CC;top=0;left=0;bottom=0;right=0;pointerEvents=1;fontSize=18;html=1;fontFamily=Times New Roman;" vertex="1" parent="D1OQs9bCTMTkSIJRtyUW-76">
          <mxGeometry width="13" height="13" as="geometry">
            <mxRectangle width="13" height="13" as="alternateBounds" />
          </mxGeometry>
        </mxCell>
        <mxCell id="D1OQs9bCTMTkSIJRtyUW-78" value="" style="shape=partialRectangle;connectable=0;strokeColor=inherit;overflow=hidden;fillColor=none;top=0;left=0;bottom=0;right=0;pointerEvents=1;fontSize=18;html=1;fontFamily=Times New Roman;" vertex="1" parent="D1OQs9bCTMTkSIJRtyUW-76">
          <mxGeometry x="13" width="12" height="13" as="geometry">
            <mxRectangle width="12" height="13" as="alternateBounds" />
          </mxGeometry>
        </mxCell>
        <mxCell id="D1OQs9bCTMTkSIJRtyUW-79" value="" style="shape=partialRectangle;connectable=0;strokeColor=inherit;overflow=hidden;fillColor=none;top=0;left=0;bottom=0;right=0;pointerEvents=1;fontSize=18;html=1;fontFamily=Times New Roman;" vertex="1" parent="D1OQs9bCTMTkSIJRtyUW-76">
          <mxGeometry x="25" width="11" height="13" as="geometry">
            <mxRectangle width="11" height="13" as="alternateBounds" />
          </mxGeometry>
        </mxCell>
        <mxCell id="D1OQs9bCTMTkSIJRtyUW-80" value="" style="shape=partialRectangle;connectable=0;strokeColor=inherit;overflow=hidden;fillColor=none;top=0;left=0;bottom=0;right=0;pointerEvents=1;fontSize=18;html=1;fontFamily=Times New Roman;" vertex="1" parent="D1OQs9bCTMTkSIJRtyUW-76">
          <mxGeometry x="36" width="12" height="13" as="geometry">
            <mxRectangle width="12" height="13" as="alternateBounds" />
          </mxGeometry>
        </mxCell>
        <mxCell id="D1OQs9bCTMTkSIJRtyUW-81" value="" style="shape=partialRectangle;connectable=0;strokeColor=inherit;overflow=hidden;fillColor=#DBDBDB;top=0;left=0;bottom=0;right=0;pointerEvents=1;fontSize=18;html=1;fontFamily=Times New Roman;" vertex="1" parent="D1OQs9bCTMTkSIJRtyUW-76">
          <mxGeometry x="48" width="12" height="13" as="geometry">
            <mxRectangle width="12" height="13" as="alternateBounds" />
          </mxGeometry>
        </mxCell>
        <mxCell id="D1OQs9bCTMTkSIJRtyUW-82" value="" style="shape=partialRectangle;connectable=0;strokeColor=inherit;overflow=hidden;fillColor=#DBDBDB;top=0;left=0;bottom=0;right=0;pointerEvents=1;fontSize=18;html=1;fontFamily=Times New Roman;" vertex="1" parent="D1OQs9bCTMTkSIJRtyUW-76">
          <mxGeometry x="60" width="12" height="13" as="geometry">
            <mxRectangle width="12" height="13" as="alternateBounds" />
          </mxGeometry>
        </mxCell>
        <mxCell id="D1OQs9bCTMTkSIJRtyUW-83" value="" style="shape=partialRectangle;connectable=0;strokeColor=default;overflow=hidden;fillColor=#DBDBDB;top=0;left=0;bottom=0;right=0;pointerEvents=1;fontSize=18;html=1;fontFamily=Times New Roman;" vertex="1" parent="D1OQs9bCTMTkSIJRtyUW-76">
          <mxGeometry x="72" width="13" height="13" as="geometry">
            <mxRectangle width="13" height="13" as="alternateBounds" />
          </mxGeometry>
        </mxCell>
        <mxCell id="D1OQs9bCTMTkSIJRtyUW-84" value="" style="shape=partialRectangle;connectable=0;strokeColor=inherit;overflow=hidden;fillColor=none;top=0;left=0;bottom=0;right=0;pointerEvents=1;fontSize=18;html=1;fontFamily=Times New Roman;" vertex="1" parent="D1OQs9bCTMTkSIJRtyUW-76">
          <mxGeometry x="85" width="12" height="13" as="geometry">
            <mxRectangle width="12" height="13" as="alternateBounds" />
          </mxGeometry>
        </mxCell>
        <mxCell id="D1OQs9bCTMTkSIJRtyUW-85" value="" style="shape=tableRow;horizontal=0;startSize=0;swimlaneHead=0;swimlaneBody=0;strokeColor=inherit;top=0;left=0;bottom=0;right=0;collapsible=0;dropTarget=0;fillColor=none;points=[[0,0.5],[1,0.5]];portConstraint=eastwest;fontSize=18;html=1;fontFamily=Times New Roman;" vertex="1" parent="D1OQs9bCTMTkSIJRtyUW-21">
          <mxGeometry y="84" width="97.35347637814432" height="10" as="geometry" />
        </mxCell>
        <mxCell id="D1OQs9bCTMTkSIJRtyUW-86" value="" style="shape=partialRectangle;connectable=0;strokeColor=inherit;overflow=hidden;fillColor=none;top=0;left=0;bottom=0;right=0;pointerEvents=1;fontSize=18;html=1;fontFamily=Times New Roman;" vertex="1" parent="D1OQs9bCTMTkSIJRtyUW-85">
          <mxGeometry width="13" height="10" as="geometry">
            <mxRectangle width="13" height="10" as="alternateBounds" />
          </mxGeometry>
        </mxCell>
        <mxCell id="D1OQs9bCTMTkSIJRtyUW-87" value="" style="shape=partialRectangle;connectable=0;strokeColor=inherit;overflow=hidden;fillColor=none;top=0;left=0;bottom=0;right=0;pointerEvents=1;fontSize=18;html=1;fontFamily=Times New Roman;" vertex="1" parent="D1OQs9bCTMTkSIJRtyUW-85">
          <mxGeometry x="13" width="12" height="10" as="geometry">
            <mxRectangle width="12" height="10" as="alternateBounds" />
          </mxGeometry>
        </mxCell>
        <mxCell id="D1OQs9bCTMTkSIJRtyUW-88" value="" style="shape=partialRectangle;connectable=0;strokeColor=inherit;overflow=hidden;fillColor=none;top=0;left=0;bottom=0;right=0;pointerEvents=1;fontSize=18;html=1;fontFamily=Times New Roman;" vertex="1" parent="D1OQs9bCTMTkSIJRtyUW-85">
          <mxGeometry x="25" width="11" height="10" as="geometry">
            <mxRectangle width="11" height="10" as="alternateBounds" />
          </mxGeometry>
        </mxCell>
        <mxCell id="D1OQs9bCTMTkSIJRtyUW-89" value="" style="shape=partialRectangle;connectable=0;strokeColor=inherit;overflow=hidden;fillColor=none;top=0;left=0;bottom=0;right=0;pointerEvents=1;fontSize=18;html=1;fontFamily=Times New Roman;" vertex="1" parent="D1OQs9bCTMTkSIJRtyUW-85">
          <mxGeometry x="36" width="12" height="10" as="geometry">
            <mxRectangle width="12" height="10" as="alternateBounds" />
          </mxGeometry>
        </mxCell>
        <mxCell id="D1OQs9bCTMTkSIJRtyUW-90" value="" style="shape=partialRectangle;connectable=0;strokeColor=inherit;overflow=hidden;fillColor=#DBDBDB;top=0;left=0;bottom=0;right=0;pointerEvents=1;fontSize=18;html=1;fontFamily=Times New Roman;" vertex="1" parent="D1OQs9bCTMTkSIJRtyUW-85">
          <mxGeometry x="48" width="12" height="10" as="geometry">
            <mxRectangle width="12" height="10" as="alternateBounds" />
          </mxGeometry>
        </mxCell>
        <mxCell id="D1OQs9bCTMTkSIJRtyUW-91" value="" style="shape=partialRectangle;connectable=0;strokeColor=inherit;overflow=hidden;fillColor=none;top=0;left=0;bottom=0;right=0;pointerEvents=1;fontSize=18;html=1;fontFamily=Times New Roman;" vertex="1" parent="D1OQs9bCTMTkSIJRtyUW-85">
          <mxGeometry x="60" width="12" height="10" as="geometry">
            <mxRectangle width="12" height="10" as="alternateBounds" />
          </mxGeometry>
        </mxCell>
        <mxCell id="D1OQs9bCTMTkSIJRtyUW-92" value="" style="shape=partialRectangle;connectable=0;strokeColor=inherit;overflow=hidden;fillColor=none;top=0;left=0;bottom=0;right=0;pointerEvents=1;fontSize=18;html=1;fontFamily=Times New Roman;" vertex="1" parent="D1OQs9bCTMTkSIJRtyUW-85">
          <mxGeometry x="72" width="13" height="10" as="geometry">
            <mxRectangle width="13" height="10" as="alternateBounds" />
          </mxGeometry>
        </mxCell>
        <mxCell id="D1OQs9bCTMTkSIJRtyUW-93" value="" style="shape=partialRectangle;connectable=0;strokeColor=default;overflow=hidden;fillColor=#DBDBDB;top=0;left=0;bottom=0;right=0;pointerEvents=1;fontSize=18;html=1;fontFamily=Times New Roman;" vertex="1" parent="D1OQs9bCTMTkSIJRtyUW-85">
          <mxGeometry x="85" width="12" height="10" as="geometry">
            <mxRectangle width="12" height="10" as="alternateBounds" />
          </mxGeometry>
        </mxCell>
        <mxCell id="D1OQs9bCTMTkSIJRtyUW-94" value="" style="line;strokeWidth=1;direction=south;html=1;fontFamily=Times New Roman;fontSize=18;" vertex="1" parent="D1OQs9bCTMTkSIJRtyUW-20">
          <mxGeometry x="82.54629299858902" y="36.19904648390942" width="4.767673818907216" height="47.675804529201436" as="geometry" />
        </mxCell>
        <mxCell id="D1OQs9bCTMTkSIJRtyUW-95" value="" style="line;strokeWidth=1;direction=south;html=1;fontFamily=Times New Roman;fontSize=18;" vertex="1" parent="D1OQs9bCTMTkSIJRtyUW-20">
          <mxGeometry x="69.7" y="36.19904648390942" width="4.767673818907216" height="47.675804529201436" as="geometry" />
        </mxCell>
        <mxCell id="D1OQs9bCTMTkSIJRtyUW-96" value="" style="line;strokeWidth=1;direction=south;html=1;fontFamily=Times New Roman;fontSize=18;" vertex="1" parent="D1OQs9bCTMTkSIJRtyUW-20">
          <mxGeometry x="45.5" y="12.361144219308706" width="4.767673818907216" height="71.51370679380216" as="geometry" />
        </mxCell>
        <mxCell id="D1OQs9bCTMTkSIJRtyUW-97" value="" style="line;strokeWidth=1;direction=south;html=1;fontFamily=Times New Roman;fontSize=18;" vertex="1" parent="D1OQs9bCTMTkSIJRtyUW-20">
          <mxGeometry x="33.55525178806015" y="13.314660309892734" width="4.767673818907216" height="38.14064362336115" as="geometry" />
        </mxCell>
        <mxCell id="D1OQs9bCTMTkSIJRtyUW-98" value="" style="line;strokeWidth=1;direction=south;html=1;fontFamily=Times New Roman;fontSize=18;" vertex="1" parent="D1OQs9bCTMTkSIJRtyUW-20">
          <mxGeometry x="57.70792390405295" y="36.19904648390942" width="4.767673818907216" height="47.675804529201436" as="geometry" />
        </mxCell>
        <mxCell id="D1OQs9bCTMTkSIJRtyUW-99" value="" style="line;strokeWidth=1;direction=south;rotation=90;html=1;fontFamily=Times New Roman;fontSize=18;" vertex="1" parent="D1OQs9bCTMTkSIJRtyUW-20">
          <mxGeometry x="63.967879628278126" y="40.5750893921335" width="4.767673818907216" height="39.928486293206205" as="geometry" />
        </mxCell>
        <mxCell id="D1OQs9bCTMTkSIJRtyUW-100" value="" style="line;strokeWidth=1;direction=south;rotation=90;html=1;fontFamily=Times New Roman;fontSize=18;" vertex="1" parent="D1OQs9bCTMTkSIJRtyUW-20">
          <mxGeometry x="70.54484649442907" y="49" width="4.767673818907216" height="49.08224076281288" as="geometry" />
        </mxCell>
        <mxCell id="D1OQs9bCTMTkSIJRtyUW-101" value="" style="line;strokeWidth=1;direction=south;rotation=0;html=1;fontFamily=Times New Roman;fontSize=18;" vertex="1" parent="D1OQs9bCTMTkSIJRtyUW-20">
          <mxGeometry x="94.99347783778525" y="34.292014302741364" width="4.767673818907216" height="49.5828367103695" as="geometry" />
        </mxCell>
        <mxCell id="D1OQs9bCTMTkSIJRtyUW-102" value="" style="line;strokeWidth=1;direction=south;rotation=90;html=1;fontFamily=Times New Roman;fontSize=18;" vertex="1" parent="D1OQs9bCTMTkSIJRtyUW-20">
          <mxGeometry x="63.58404271882452" y="17.128724672228845" width="4.767673818907216" height="62.93206197854589" as="geometry" />
        </mxCell>
        <mxCell id="D1OQs9bCTMTkSIJRtyUW-103" value="" style="line;strokeWidth=1;direction=south;rotation=90;html=1;fontFamily=Times New Roman;fontSize=18;" vertex="1" parent="D1OQs9bCTMTkSIJRtyUW-20">
          <mxGeometry x="46.14" y="-12.5" width="4.77" height="97.87" as="geometry" />
        </mxCell>
        <mxCell id="D1OQs9bCTMTkSIJRtyUW-104" value="" style="line;strokeWidth=1;direction=south;rotation=90;html=1;fontFamily=Times New Roman;fontSize=18;" vertex="1" parent="D1OQs9bCTMTkSIJRtyUW-20">
          <mxGeometry x="43.09" y="-21.4" width="4.77" height="91.92" as="geometry" />
        </mxCell>
        <mxCell id="D1OQs9bCTMTkSIJRtyUW-105" value="" style="line;strokeWidth=1;direction=south;rotation=0;html=1;fontFamily=Times New Roman;fontSize=18;" vertex="1" parent="D1OQs9bCTMTkSIJRtyUW-20">
          <mxGeometry x="10.6" width="4.767673818907216" height="50.53635280095352" as="geometry" />
        </mxCell>
        <mxCell id="D1OQs9bCTMTkSIJRtyUW-106" value="" style="line;strokeWidth=1;direction=south;rotation=0;html=1;fontFamily=Times New Roman;fontSize=18;" vertex="1" parent="D1OQs9bCTMTkSIJRtyUW-20">
          <mxGeometry x="22.531905317958454" width="4.767673818907216" height="50.53635280095352" as="geometry" />
        </mxCell>
        <mxCell id="D1OQs9bCTMTkSIJRtyUW-107" value="" style="line;strokeWidth=1;direction=south;html=1;fontFamily=Times New Roman;fontSize=18;" vertex="1" parent="D1OQs9bCTMTkSIJRtyUW-20">
          <mxGeometry x="-2.383836909453608" y="-10.476758045292014" width="4.767673818907216" height="14.779499404052444" as="geometry" />
        </mxCell>
        <mxCell id="D1OQs9bCTMTkSIJRtyUW-108" value="" style="line;strokeWidth=1;direction=south;html=1;fontFamily=Times New Roman;fontSize=18;" vertex="1" parent="D1OQs9bCTMTkSIJRtyUW-20">
          <mxGeometry x="55.091151656692475" y="17.129451728247886" width="10" height="40" as="geometry" />
        </mxCell>
        <mxCell id="D1OQs9bCTMTkSIJRtyUW-109" value="" style="line;strokeWidth=1;direction=south;rotation=0;html=1;fontFamily=Times New Roman;fontSize=18;" vertex="1" parent="D1OQs9bCTMTkSIJRtyUW-20">
          <mxGeometry x="-7.7488483433076" y="9.109451728247905" width="15.35" height="64.41" as="geometry" />
        </mxCell>
        <mxCell id="D1OQs9bCTMTkSIJRtyUW-110" value="" style="line;strokeWidth=1;direction=south;rotation=90;html=1;fontFamily=Times New Roman;fontSize=18;" vertex="1" parent="D1OQs9bCTMTkSIJRtyUW-19">
          <mxGeometry x="12.038376392740721" y="-10" width="4.767673818907216" height="28.84386174016687" as="geometry" />
        </mxCell>
        <mxCell id="D1OQs9bCTMTkSIJRtyUW-111" value="" style="line;strokeWidth=1;direction=south;rotation=90;html=1;fontFamily=Times New Roman;fontSize=18;" vertex="1" parent="D1OQs9bCTMTkSIJRtyUW-19">
          <mxGeometry x="22.203056974650902" y="-8.4016686531585" width="4.767673818907216" height="49.168057210965436" as="geometry" />
        </mxCell>
        <mxCell id="D1OQs9bCTMTkSIJRtyUW-112" value="" style="line;strokeWidth=1;direction=south;rotation=90;html=1;fontFamily=Times New Roman;fontSize=18;" vertex="1" parent="D1OQs9bCTMTkSIJRtyUW-19">
          <mxGeometry x="70.74985646864205" y="62.3" width="4.767673818907216" height="48.86769964243147" as="geometry" />
        </mxCell>
        <mxCell id="D1OQs9bCTMTkSIJRtyUW-113" value="" style="line;strokeWidth=1;direction=south;rotation=90;html=1;fontFamily=Times New Roman;fontSize=18;" vertex="1" parent="D1OQs9bCTMTkSIJRtyUW-19">
          <mxGeometry x="7.270702573833504" y="-17.27056019070322" width="4.767673818907216" height="19.308700834326583" as="geometry" />
        </mxCell>
        <mxCell id="D1OQs9bCTMTkSIJRtyUW-114" value="" style="line;strokeWidth=1;direction=south;aspect=fixed;html=1;fontFamily=Times New Roman;fontSize=18;" vertex="1" parent="D1OQs9bCTMTkSIJRtyUW-19">
          <mxGeometry x="13.5" y="-7.2" width="0.23" height="3.1" as="geometry" />
        </mxCell>
        <mxCell id="D1OQs9bCTMTkSIJRtyUW-115" value="" style="group;html=1;fontFamily=Times New Roman;fontSize=18;" vertex="1" connectable="0" parent="D1OQs9bCTMTkSIJRtyUW-18">
          <mxGeometry x="5" y="4" width="97.99" height="100" as="geometry" />
        </mxCell>
        <mxCell id="D1OQs9bCTMTkSIJRtyUW-116" value="" style="group;html=1;fontFamily=Times New Roman;fontSize=18;" vertex="1" connectable="0" parent="D1OQs9bCTMTkSIJRtyUW-115">
          <mxGeometry x="0.2288483433075415" y="2.8605482717520863" width="97.76115165669248" height="95.35160905840287" as="geometry" />
        </mxCell>
        <mxCell id="D1OQs9bCTMTkSIJRtyUW-117" value="" style="shape=table;startSize=0;container=1;collapsible=0;childLayout=tableLayout;fontSize=18;html=1;fontFamily=Times New Roman;" vertex="1" parent="D1OQs9bCTMTkSIJRtyUW-116">
          <mxGeometry y="-10.476758045292014" width="97.35347637814432" height="94.35160905840287" as="geometry" />
        </mxCell>
        <mxCell id="D1OQs9bCTMTkSIJRtyUW-118" value="" style="shape=tableRow;horizontal=0;startSize=0;swimlaneHead=0;swimlaneBody=0;strokeColor=inherit;top=0;left=0;bottom=0;right=0;collapsible=0;dropTarget=0;fillColor=none;points=[[0,0.5],[1,0.5]];portConstraint=eastwest;fontSize=18;html=1;fontFamily=Times New Roman;" vertex="1" parent="D1OQs9bCTMTkSIJRtyUW-117">
          <mxGeometry width="97.35347637814432" height="12" as="geometry" />
        </mxCell>
        <mxCell id="D1OQs9bCTMTkSIJRtyUW-119" value="" style="shape=partialRectangle;connectable=0;strokeColor=default;overflow=hidden;fillColor=#FFCC99;top=0;left=0;bottom=0;right=0;pointerEvents=1;fontSize=18;html=1;fontFamily=Times New Roman;" vertex="1" parent="D1OQs9bCTMTkSIJRtyUW-118">
          <mxGeometry width="13" height="12" as="geometry">
            <mxRectangle width="13" height="12" as="alternateBounds" />
          </mxGeometry>
        </mxCell>
        <mxCell id="D1OQs9bCTMTkSIJRtyUW-120" value="" style="shape=partialRectangle;connectable=0;strokeColor=inherit;overflow=hidden;fillColor=none;top=0;left=0;bottom=0;right=0;pointerEvents=1;fontSize=18;html=1;fontFamily=Times New Roman;" vertex="1" parent="D1OQs9bCTMTkSIJRtyUW-118">
          <mxGeometry x="13" width="12" height="12" as="geometry">
            <mxRectangle width="12" height="12" as="alternateBounds" />
          </mxGeometry>
        </mxCell>
        <mxCell id="D1OQs9bCTMTkSIJRtyUW-121" value="" style="shape=partialRectangle;connectable=0;strokeColor=inherit;overflow=hidden;fillColor=none;top=0;left=0;bottom=0;right=0;pointerEvents=1;fontSize=18;html=1;fontFamily=Times New Roman;" vertex="1" parent="D1OQs9bCTMTkSIJRtyUW-118">
          <mxGeometry x="25" width="11" height="12" as="geometry">
            <mxRectangle width="11" height="12" as="alternateBounds" />
          </mxGeometry>
        </mxCell>
        <mxCell id="D1OQs9bCTMTkSIJRtyUW-122" value="" style="shape=partialRectangle;connectable=0;strokeColor=inherit;overflow=hidden;fillColor=none;top=0;left=0;bottom=0;right=0;pointerEvents=1;fontSize=18;html=1;fontFamily=Times New Roman;" vertex="1" parent="D1OQs9bCTMTkSIJRtyUW-118">
          <mxGeometry x="36" width="12" height="12" as="geometry">
            <mxRectangle width="12" height="12" as="alternateBounds" />
          </mxGeometry>
        </mxCell>
        <mxCell id="D1OQs9bCTMTkSIJRtyUW-123" value="" style="shape=partialRectangle;connectable=0;strokeColor=inherit;overflow=hidden;fillColor=none;top=0;left=0;bottom=0;right=0;pointerEvents=1;fontSize=18;html=1;fontFamily=Times New Roman;" vertex="1" parent="D1OQs9bCTMTkSIJRtyUW-118">
          <mxGeometry x="48" width="12" height="12" as="geometry">
            <mxRectangle width="12" height="12" as="alternateBounds" />
          </mxGeometry>
        </mxCell>
        <mxCell id="D1OQs9bCTMTkSIJRtyUW-124" value="" style="shape=partialRectangle;connectable=0;strokeColor=inherit;overflow=hidden;fillColor=none;top=0;left=0;bottom=0;right=0;pointerEvents=1;fontSize=18;html=1;fontFamily=Times New Roman;" vertex="1" parent="D1OQs9bCTMTkSIJRtyUW-118">
          <mxGeometry x="60" width="12" height="12" as="geometry">
            <mxRectangle width="12" height="12" as="alternateBounds" />
          </mxGeometry>
        </mxCell>
        <mxCell id="D1OQs9bCTMTkSIJRtyUW-125" value="" style="shape=partialRectangle;connectable=0;strokeColor=inherit;overflow=hidden;fillColor=none;top=0;left=0;bottom=0;right=0;pointerEvents=1;fontSize=18;html=1;fontFamily=Times New Roman;" vertex="1" parent="D1OQs9bCTMTkSIJRtyUW-118">
          <mxGeometry x="72" width="13" height="12" as="geometry">
            <mxRectangle width="13" height="12" as="alternateBounds" />
          </mxGeometry>
        </mxCell>
        <mxCell id="D1OQs9bCTMTkSIJRtyUW-126" value="" style="shape=partialRectangle;connectable=0;strokeColor=inherit;overflow=hidden;fillColor=none;top=0;left=0;bottom=0;right=0;pointerEvents=1;fontSize=18;html=1;fontFamily=Times New Roman;" vertex="1" parent="D1OQs9bCTMTkSIJRtyUW-118">
          <mxGeometry x="85" width="12" height="12" as="geometry">
            <mxRectangle width="12" height="12" as="alternateBounds" />
          </mxGeometry>
        </mxCell>
        <mxCell id="D1OQs9bCTMTkSIJRtyUW-127" value="" style="shape=tableRow;horizontal=0;startSize=0;swimlaneHead=0;swimlaneBody=0;strokeColor=inherit;top=0;left=0;bottom=0;right=0;collapsible=0;dropTarget=0;fillColor=none;points=[[0,0.5],[1,0.5]];portConstraint=eastwest;fontSize=18;html=1;fontFamily=Times New Roman;" vertex="1" parent="D1OQs9bCTMTkSIJRtyUW-117">
          <mxGeometry y="12" width="97.35347637814432" height="12" as="geometry" />
        </mxCell>
        <mxCell id="D1OQs9bCTMTkSIJRtyUW-128" value="" style="shape=partialRectangle;connectable=0;strokeColor=inherit;overflow=hidden;fillColor=none;top=0;left=0;bottom=0;right=0;pointerEvents=1;fontSize=18;html=1;fontFamily=Times New Roman;" vertex="1" parent="D1OQs9bCTMTkSIJRtyUW-127">
          <mxGeometry width="13" height="12" as="geometry">
            <mxRectangle width="13" height="12" as="alternateBounds" />
          </mxGeometry>
        </mxCell>
        <mxCell id="D1OQs9bCTMTkSIJRtyUW-129" value="" style="shape=partialRectangle;connectable=0;strokeColor=default;overflow=hidden;fillColor=#DBDBDB;top=0;left=0;bottom=0;right=0;pointerEvents=1;fontSize=18;html=1;fontFamily=Times New Roman;" vertex="1" parent="D1OQs9bCTMTkSIJRtyUW-127">
          <mxGeometry x="13" width="12" height="12" as="geometry">
            <mxRectangle width="12" height="12" as="alternateBounds" />
          </mxGeometry>
        </mxCell>
        <mxCell id="D1OQs9bCTMTkSIJRtyUW-130" value="" style="shape=partialRectangle;connectable=0;strokeColor=inherit;overflow=hidden;fillColor=none;top=0;left=0;bottom=0;right=0;pointerEvents=1;fontSize=18;html=1;fontFamily=Times New Roman;" vertex="1" parent="D1OQs9bCTMTkSIJRtyUW-127">
          <mxGeometry x="25" width="11" height="12" as="geometry">
            <mxRectangle width="11" height="12" as="alternateBounds" />
          </mxGeometry>
        </mxCell>
        <mxCell id="D1OQs9bCTMTkSIJRtyUW-131" value="" style="shape=partialRectangle;connectable=0;strokeColor=inherit;overflow=hidden;fillColor=none;top=0;left=0;bottom=0;right=0;pointerEvents=1;fontSize=18;html=1;fontFamily=Times New Roman;" vertex="1" parent="D1OQs9bCTMTkSIJRtyUW-127">
          <mxGeometry x="36" width="12" height="12" as="geometry">
            <mxRectangle width="12" height="12" as="alternateBounds" />
          </mxGeometry>
        </mxCell>
        <mxCell id="D1OQs9bCTMTkSIJRtyUW-132" value="" style="shape=partialRectangle;connectable=0;strokeColor=inherit;overflow=hidden;fillColor=none;top=0;left=0;bottom=0;right=0;pointerEvents=1;fontSize=18;html=1;fontFamily=Times New Roman;" vertex="1" parent="D1OQs9bCTMTkSIJRtyUW-127">
          <mxGeometry x="48" width="12" height="12" as="geometry">
            <mxRectangle width="12" height="12" as="alternateBounds" />
          </mxGeometry>
        </mxCell>
        <mxCell id="D1OQs9bCTMTkSIJRtyUW-133" value="" style="shape=partialRectangle;connectable=0;strokeColor=inherit;overflow=hidden;fillColor=none;top=0;left=0;bottom=0;right=0;pointerEvents=1;fontSize=18;html=1;fontFamily=Times New Roman;" vertex="1" parent="D1OQs9bCTMTkSIJRtyUW-127">
          <mxGeometry x="60" width="12" height="12" as="geometry">
            <mxRectangle width="12" height="12" as="alternateBounds" />
          </mxGeometry>
        </mxCell>
        <mxCell id="D1OQs9bCTMTkSIJRtyUW-134" value="" style="shape=partialRectangle;connectable=0;strokeColor=inherit;overflow=hidden;fillColor=none;top=0;left=0;bottom=0;right=0;pointerEvents=1;fontSize=18;html=1;fontFamily=Times New Roman;" vertex="1" parent="D1OQs9bCTMTkSIJRtyUW-127">
          <mxGeometry x="72" width="13" height="12" as="geometry">
            <mxRectangle width="13" height="12" as="alternateBounds" />
          </mxGeometry>
        </mxCell>
        <mxCell id="D1OQs9bCTMTkSIJRtyUW-135" value="" style="shape=partialRectangle;connectable=0;strokeColor=inherit;overflow=hidden;fillColor=none;top=0;left=0;bottom=0;right=0;pointerEvents=1;fontSize=18;html=1;fontFamily=Times New Roman;" vertex="1" parent="D1OQs9bCTMTkSIJRtyUW-127">
          <mxGeometry x="85" width="12" height="12" as="geometry">
            <mxRectangle width="12" height="12" as="alternateBounds" />
          </mxGeometry>
        </mxCell>
        <mxCell id="D1OQs9bCTMTkSIJRtyUW-136" value="" style="shape=tableRow;horizontal=0;startSize=0;swimlaneHead=0;swimlaneBody=0;strokeColor=inherit;top=0;left=0;bottom=0;right=0;collapsible=0;dropTarget=0;fillColor=none;points=[[0,0.5],[1,0.5]];portConstraint=eastwest;fontSize=18;html=1;fontFamily=Times New Roman;" vertex="1" parent="D1OQs9bCTMTkSIJRtyUW-117">
          <mxGeometry y="24" width="97.35347637814432" height="11" as="geometry" />
        </mxCell>
        <mxCell id="D1OQs9bCTMTkSIJRtyUW-137" value="" style="shape=partialRectangle;connectable=0;strokeColor=inherit;overflow=hidden;fillColor=#FFE6CC;top=0;left=0;bottom=0;right=0;pointerEvents=1;fontSize=18;html=1;fontFamily=Times New Roman;" vertex="1" parent="D1OQs9bCTMTkSIJRtyUW-136">
          <mxGeometry width="13" height="11" as="geometry">
            <mxRectangle width="13" height="11" as="alternateBounds" />
          </mxGeometry>
        </mxCell>
        <mxCell id="D1OQs9bCTMTkSIJRtyUW-138" value="" style="shape=partialRectangle;connectable=0;strokeColor=inherit;overflow=hidden;fillColor=none;top=0;left=0;bottom=0;right=0;pointerEvents=1;fontSize=18;html=1;fontFamily=Times New Roman;" vertex="1" parent="D1OQs9bCTMTkSIJRtyUW-136">
          <mxGeometry x="13" width="12" height="11" as="geometry">
            <mxRectangle width="12" height="11" as="alternateBounds" />
          </mxGeometry>
        </mxCell>
        <mxCell id="D1OQs9bCTMTkSIJRtyUW-139" value="" style="shape=partialRectangle;connectable=0;strokeColor=#b85450;overflow=hidden;fillColor=#DBDBDB;top=0;left=0;bottom=0;right=0;pointerEvents=1;fontSize=18;html=1;fontFamily=Times New Roman;" vertex="1" parent="D1OQs9bCTMTkSIJRtyUW-136">
          <mxGeometry x="25" width="11" height="11" as="geometry">
            <mxRectangle width="11" height="11" as="alternateBounds" />
          </mxGeometry>
        </mxCell>
        <mxCell id="D1OQs9bCTMTkSIJRtyUW-140" value="" style="shape=partialRectangle;connectable=0;strokeColor=#b85450;overflow=hidden;fillColor=#DBDBDB;top=0;left=0;bottom=0;right=0;pointerEvents=1;fontSize=18;html=1;fontFamily=Times New Roman;" vertex="1" parent="D1OQs9bCTMTkSIJRtyUW-136">
          <mxGeometry x="36" width="12" height="11" as="geometry">
            <mxRectangle width="12" height="11" as="alternateBounds" />
          </mxGeometry>
        </mxCell>
        <mxCell id="D1OQs9bCTMTkSIJRtyUW-141" value="" style="shape=partialRectangle;connectable=0;strokeColor=inherit;overflow=hidden;fillColor=none;top=0;left=0;bottom=0;right=0;pointerEvents=1;fontSize=18;html=1;fontFamily=Times New Roman;" vertex="1" parent="D1OQs9bCTMTkSIJRtyUW-136">
          <mxGeometry x="48" width="12" height="11" as="geometry">
            <mxRectangle width="12" height="11" as="alternateBounds" />
          </mxGeometry>
        </mxCell>
        <mxCell id="D1OQs9bCTMTkSIJRtyUW-142" value="" style="shape=partialRectangle;connectable=0;strokeColor=inherit;overflow=hidden;fillColor=none;top=0;left=0;bottom=0;right=0;pointerEvents=1;fontSize=18;html=1;fontFamily=Times New Roman;" vertex="1" parent="D1OQs9bCTMTkSIJRtyUW-136">
          <mxGeometry x="60" width="12" height="11" as="geometry">
            <mxRectangle width="12" height="11" as="alternateBounds" />
          </mxGeometry>
        </mxCell>
        <mxCell id="D1OQs9bCTMTkSIJRtyUW-143" value="" style="shape=partialRectangle;connectable=0;strokeColor=inherit;overflow=hidden;fillColor=none;top=0;left=0;bottom=0;right=0;pointerEvents=1;fontSize=18;html=1;fontFamily=Times New Roman;" vertex="1" parent="D1OQs9bCTMTkSIJRtyUW-136">
          <mxGeometry x="72" width="13" height="11" as="geometry">
            <mxRectangle width="13" height="11" as="alternateBounds" />
          </mxGeometry>
        </mxCell>
        <mxCell id="D1OQs9bCTMTkSIJRtyUW-144" value="" style="shape=partialRectangle;connectable=0;strokeColor=inherit;overflow=hidden;fillColor=none;top=0;left=0;bottom=0;right=0;pointerEvents=1;fontSize=18;html=1;fontFamily=Times New Roman;" vertex="1" parent="D1OQs9bCTMTkSIJRtyUW-136">
          <mxGeometry x="85" width="12" height="11" as="geometry">
            <mxRectangle width="12" height="11" as="alternateBounds" />
          </mxGeometry>
        </mxCell>
        <mxCell id="D1OQs9bCTMTkSIJRtyUW-145" value="" style="shape=tableRow;horizontal=0;startSize=0;swimlaneHead=0;swimlaneBody=0;strokeColor=inherit;top=0;left=0;bottom=0;right=0;collapsible=0;dropTarget=0;fillColor=none;points=[[0,0.5],[1,0.5]];portConstraint=eastwest;fontSize=18;html=1;fontFamily=Times New Roman;" vertex="1" parent="D1OQs9bCTMTkSIJRtyUW-117">
          <mxGeometry y="35" width="97.35347637814432" height="12" as="geometry" />
        </mxCell>
        <mxCell id="D1OQs9bCTMTkSIJRtyUW-146" value="" style="shape=partialRectangle;connectable=0;strokeColor=#b85450;overflow=hidden;fillColor=#ffe6cc;top=0;left=0;bottom=0;right=0;pointerEvents=1;fontSize=18;html=1;fontFamily=Times New Roman;" vertex="1" parent="D1OQs9bCTMTkSIJRtyUW-145">
          <mxGeometry width="13" height="12" as="geometry">
            <mxRectangle width="13" height="12" as="alternateBounds" />
          </mxGeometry>
        </mxCell>
        <mxCell id="D1OQs9bCTMTkSIJRtyUW-147" value="" style="shape=partialRectangle;connectable=0;strokeColor=#b85450;overflow=hidden;fillColor=#DBDBDB;top=0;left=0;bottom=0;right=0;pointerEvents=1;fontSize=18;html=1;fontFamily=Times New Roman;" vertex="1" parent="D1OQs9bCTMTkSIJRtyUW-145">
          <mxGeometry x="13" width="12" height="12" as="geometry">
            <mxRectangle width="12" height="12" as="alternateBounds" />
          </mxGeometry>
        </mxCell>
        <mxCell id="D1OQs9bCTMTkSIJRtyUW-148" value="" style="shape=partialRectangle;connectable=0;strokeColor=#b85450;overflow=hidden;fillColor=#DBDBDB;top=0;left=0;bottom=0;right=0;pointerEvents=1;fontSize=18;html=1;fontFamily=Times New Roman;" vertex="1" parent="D1OQs9bCTMTkSIJRtyUW-145">
          <mxGeometry x="25" width="11" height="12" as="geometry">
            <mxRectangle width="11" height="12" as="alternateBounds" />
          </mxGeometry>
        </mxCell>
        <mxCell id="D1OQs9bCTMTkSIJRtyUW-149" value="" style="shape=partialRectangle;connectable=0;strokeColor=#b85450;overflow=hidden;fillColor=#DBDBDB;top=0;left=0;bottom=0;right=0;pointerEvents=1;fontSize=18;html=1;fontFamily=Times New Roman;" vertex="1" parent="D1OQs9bCTMTkSIJRtyUW-145">
          <mxGeometry x="36" width="12" height="12" as="geometry">
            <mxRectangle width="12" height="12" as="alternateBounds" />
          </mxGeometry>
        </mxCell>
        <mxCell id="D1OQs9bCTMTkSIJRtyUW-150" value="" style="shape=partialRectangle;connectable=0;strokeColor=#b85450;overflow=hidden;fillColor=#DBDBDB;top=0;left=0;bottom=0;right=0;pointerEvents=1;fontSize=18;html=1;fontFamily=Times New Roman;" vertex="1" parent="D1OQs9bCTMTkSIJRtyUW-145">
          <mxGeometry x="48" width="12" height="12" as="geometry">
            <mxRectangle width="12" height="12" as="alternateBounds" />
          </mxGeometry>
        </mxCell>
        <mxCell id="D1OQs9bCTMTkSIJRtyUW-151" value="" style="shape=partialRectangle;connectable=0;strokeColor=inherit;overflow=hidden;fillColor=none;top=0;left=0;bottom=0;right=0;pointerEvents=1;fontSize=18;html=1;fontFamily=Times New Roman;" vertex="1" parent="D1OQs9bCTMTkSIJRtyUW-145">
          <mxGeometry x="60" width="12" height="12" as="geometry">
            <mxRectangle width="12" height="12" as="alternateBounds" />
          </mxGeometry>
        </mxCell>
        <mxCell id="D1OQs9bCTMTkSIJRtyUW-152" value="" style="shape=partialRectangle;connectable=0;strokeColor=inherit;overflow=hidden;fillColor=none;top=0;left=0;bottom=0;right=0;pointerEvents=1;fontSize=18;html=1;fontFamily=Times New Roman;" vertex="1" parent="D1OQs9bCTMTkSIJRtyUW-145">
          <mxGeometry x="72" width="13" height="12" as="geometry">
            <mxRectangle width="13" height="12" as="alternateBounds" />
          </mxGeometry>
        </mxCell>
        <mxCell id="D1OQs9bCTMTkSIJRtyUW-153" value="" style="shape=partialRectangle;connectable=0;strokeColor=inherit;overflow=hidden;fillColor=none;top=0;left=0;bottom=0;right=0;pointerEvents=1;fontSize=18;html=1;fontFamily=Times New Roman;" vertex="1" parent="D1OQs9bCTMTkSIJRtyUW-145">
          <mxGeometry x="85" width="12" height="12" as="geometry">
            <mxRectangle width="12" height="12" as="alternateBounds" />
          </mxGeometry>
        </mxCell>
        <mxCell id="D1OQs9bCTMTkSIJRtyUW-154" value="" style="shape=tableRow;horizontal=0;startSize=0;swimlaneHead=0;swimlaneBody=0;strokeColor=inherit;top=0;left=0;bottom=0;right=0;collapsible=0;dropTarget=0;fillColor=none;points=[[0,0.5],[1,0.5]];portConstraint=eastwest;fontSize=18;html=1;fontFamily=Times New Roman;" vertex="1" parent="D1OQs9bCTMTkSIJRtyUW-117">
          <mxGeometry y="47" width="97.35347637814432" height="12" as="geometry" />
        </mxCell>
        <mxCell id="D1OQs9bCTMTkSIJRtyUW-155" value="" style="shape=partialRectangle;connectable=0;strokeColor=inherit;overflow=hidden;fillColor=none;top=0;left=0;bottom=0;right=0;pointerEvents=1;fontSize=18;html=1;fontFamily=Times New Roman;" vertex="1" parent="D1OQs9bCTMTkSIJRtyUW-154">
          <mxGeometry width="13" height="12" as="geometry">
            <mxRectangle width="13" height="12" as="alternateBounds" />
          </mxGeometry>
        </mxCell>
        <mxCell id="D1OQs9bCTMTkSIJRtyUW-156" value="" style="shape=partialRectangle;connectable=0;strokeColor=inherit;overflow=hidden;fillColor=none;top=0;left=0;bottom=0;right=0;pointerEvents=1;fontSize=18;html=1;fontFamily=Times New Roman;" vertex="1" parent="D1OQs9bCTMTkSIJRtyUW-154">
          <mxGeometry x="13" width="12" height="12" as="geometry">
            <mxRectangle width="12" height="12" as="alternateBounds" />
          </mxGeometry>
        </mxCell>
        <mxCell id="D1OQs9bCTMTkSIJRtyUW-157" value="" style="shape=partialRectangle;connectable=0;strokeColor=inherit;overflow=hidden;fillColor=none;top=0;left=0;bottom=0;right=0;pointerEvents=1;fontSize=18;html=1;fontFamily=Times New Roman;" vertex="1" parent="D1OQs9bCTMTkSIJRtyUW-154">
          <mxGeometry x="25" width="11" height="12" as="geometry">
            <mxRectangle width="11" height="12" as="alternateBounds" />
          </mxGeometry>
        </mxCell>
        <mxCell id="D1OQs9bCTMTkSIJRtyUW-158" value="" style="shape=partialRectangle;connectable=0;strokeColor=inherit;overflow=hidden;fillColor=#DBDBDB;top=0;left=0;bottom=0;right=0;pointerEvents=1;fontSize=18;html=1;fontFamily=Times New Roman;" vertex="1" parent="D1OQs9bCTMTkSIJRtyUW-154">
          <mxGeometry x="36" width="12" height="12" as="geometry">
            <mxRectangle width="12" height="12" as="alternateBounds" />
          </mxGeometry>
        </mxCell>
        <mxCell id="D1OQs9bCTMTkSIJRtyUW-159" value="" style="shape=partialRectangle;connectable=0;strokeColor=default;overflow=hidden;fillColor=#DBDBDB;top=0;left=0;bottom=0;right=0;pointerEvents=1;fontSize=18;html=1;fontFamily=Times New Roman;" vertex="1" parent="D1OQs9bCTMTkSIJRtyUW-154">
          <mxGeometry x="48" width="12" height="12" as="geometry">
            <mxRectangle width="12" height="12" as="alternateBounds" />
          </mxGeometry>
        </mxCell>
        <mxCell id="D1OQs9bCTMTkSIJRtyUW-160" value="" style="shape=partialRectangle;connectable=0;strokeColor=inherit;overflow=hidden;fillColor=none;top=0;left=0;bottom=0;right=0;pointerEvents=1;fontSize=18;html=1;fontFamily=Times New Roman;" vertex="1" parent="D1OQs9bCTMTkSIJRtyUW-154">
          <mxGeometry x="60" width="12" height="12" as="geometry">
            <mxRectangle width="12" height="12" as="alternateBounds" />
          </mxGeometry>
        </mxCell>
        <mxCell id="D1OQs9bCTMTkSIJRtyUW-161" value="" style="shape=partialRectangle;connectable=0;strokeColor=inherit;overflow=hidden;fillColor=#DBDBDB;top=0;left=0;bottom=0;right=0;pointerEvents=1;fontSize=18;strokeWidth=3;html=1;fontFamily=Times New Roman;" vertex="1" parent="D1OQs9bCTMTkSIJRtyUW-154">
          <mxGeometry x="72" width="13" height="12" as="geometry">
            <mxRectangle width="13" height="12" as="alternateBounds" />
          </mxGeometry>
        </mxCell>
        <mxCell id="D1OQs9bCTMTkSIJRtyUW-162" value="" style="shape=partialRectangle;connectable=0;strokeColor=inherit;overflow=hidden;fillColor=#DBDBDB;top=0;left=0;bottom=0;right=0;pointerEvents=1;fontSize=18;html=1;fontFamily=Times New Roman;" vertex="1" parent="D1OQs9bCTMTkSIJRtyUW-154">
          <mxGeometry x="85" width="12" height="12" as="geometry">
            <mxRectangle width="12" height="12" as="alternateBounds" />
          </mxGeometry>
        </mxCell>
        <mxCell id="D1OQs9bCTMTkSIJRtyUW-163" value="" style="shape=tableRow;horizontal=0;startSize=0;swimlaneHead=0;swimlaneBody=0;strokeColor=inherit;top=0;left=0;bottom=0;right=0;collapsible=0;dropTarget=0;fillColor=none;points=[[0,0.5],[1,0.5]];portConstraint=eastwest;fontSize=18;html=1;fontFamily=Times New Roman;" vertex="1" parent="D1OQs9bCTMTkSIJRtyUW-117">
          <mxGeometry y="59" width="97.35347637814432" height="12" as="geometry" />
        </mxCell>
        <mxCell id="D1OQs9bCTMTkSIJRtyUW-164" value="" style="shape=partialRectangle;connectable=0;strokeColor=inherit;overflow=hidden;fillColor=none;top=0;left=0;bottom=0;right=0;pointerEvents=1;fontSize=18;html=1;fontFamily=Times New Roman;" vertex="1" parent="D1OQs9bCTMTkSIJRtyUW-163">
          <mxGeometry width="13" height="12" as="geometry">
            <mxRectangle width="13" height="12" as="alternateBounds" />
          </mxGeometry>
        </mxCell>
        <mxCell id="D1OQs9bCTMTkSIJRtyUW-165" value="" style="shape=partialRectangle;connectable=0;strokeColor=inherit;overflow=hidden;fillColor=none;top=0;left=0;bottom=0;right=0;pointerEvents=1;fontSize=18;html=1;fontFamily=Times New Roman;" vertex="1" parent="D1OQs9bCTMTkSIJRtyUW-163">
          <mxGeometry x="13" width="12" height="12" as="geometry">
            <mxRectangle width="12" height="12" as="alternateBounds" />
          </mxGeometry>
        </mxCell>
        <mxCell id="D1OQs9bCTMTkSIJRtyUW-166" value="" style="shape=partialRectangle;connectable=0;strokeColor=inherit;overflow=hidden;fillColor=none;top=0;left=0;bottom=0;right=0;pointerEvents=1;fontSize=18;html=1;fontFamily=Times New Roman;" vertex="1" parent="D1OQs9bCTMTkSIJRtyUW-163">
          <mxGeometry x="25" width="11" height="12" as="geometry">
            <mxRectangle width="11" height="12" as="alternateBounds" />
          </mxGeometry>
        </mxCell>
        <mxCell id="D1OQs9bCTMTkSIJRtyUW-167" value="" style="shape=partialRectangle;connectable=0;strokeColor=inherit;overflow=hidden;fillColor=none;top=0;left=0;bottom=0;right=0;pointerEvents=1;fontSize=18;html=1;fontFamily=Times New Roman;" vertex="1" parent="D1OQs9bCTMTkSIJRtyUW-163">
          <mxGeometry x="36" width="12" height="12" as="geometry">
            <mxRectangle width="12" height="12" as="alternateBounds" />
          </mxGeometry>
        </mxCell>
        <mxCell id="D1OQs9bCTMTkSIJRtyUW-168" value="" style="shape=partialRectangle;connectable=0;strokeColor=inherit;overflow=hidden;fillColor=none;top=0;left=0;bottom=0;right=0;pointerEvents=1;fontSize=18;html=1;fontFamily=Times New Roman;" vertex="1" parent="D1OQs9bCTMTkSIJRtyUW-163">
          <mxGeometry x="48" width="12" height="12" as="geometry">
            <mxRectangle width="12" height="12" as="alternateBounds" />
          </mxGeometry>
        </mxCell>
        <mxCell id="D1OQs9bCTMTkSIJRtyUW-169" value="" style="shape=partialRectangle;connectable=0;strokeColor=default;overflow=hidden;fillColor=#DBDBDB;top=0;left=0;bottom=0;right=0;pointerEvents=1;fontSize=18;perimeterSpacing=1;strokeWidth=3;html=1;fontFamily=Times New Roman;" vertex="1" parent="D1OQs9bCTMTkSIJRtyUW-163">
          <mxGeometry x="60" width="12" height="12" as="geometry">
            <mxRectangle width="12" height="12" as="alternateBounds" />
          </mxGeometry>
        </mxCell>
        <mxCell id="D1OQs9bCTMTkSIJRtyUW-170" value="" style="shape=partialRectangle;connectable=0;strokeColor=default;overflow=hidden;fillColor=#DBDBDB;top=0;left=0;bottom=0;right=0;pointerEvents=1;fontSize=18;shadow=0;dashed=1;dashPattern=1 2;gradientColor=none;html=1;fontFamily=Times New Roman;" vertex="1" parent="D1OQs9bCTMTkSIJRtyUW-163">
          <mxGeometry x="72" width="13" height="12" as="geometry">
            <mxRectangle width="13" height="12" as="alternateBounds" />
          </mxGeometry>
        </mxCell>
        <mxCell id="D1OQs9bCTMTkSIJRtyUW-171" value="" style="shape=partialRectangle;connectable=0;strokeColor=inherit;overflow=hidden;fillColor=none;top=0;left=0;bottom=0;right=0;pointerEvents=1;fontSize=18;html=1;fontFamily=Times New Roman;" vertex="1" parent="D1OQs9bCTMTkSIJRtyUW-163">
          <mxGeometry x="85" width="12" height="12" as="geometry">
            <mxRectangle width="12" height="12" as="alternateBounds" />
          </mxGeometry>
        </mxCell>
        <mxCell id="D1OQs9bCTMTkSIJRtyUW-172" value="" style="shape=tableRow;horizontal=0;startSize=0;swimlaneHead=0;swimlaneBody=0;strokeColor=inherit;top=0;left=0;bottom=0;right=0;collapsible=0;dropTarget=0;fillColor=none;points=[[0,0.5],[1,0.5]];portConstraint=eastwest;fontSize=18;html=1;fontFamily=Times New Roman;" vertex="1" parent="D1OQs9bCTMTkSIJRtyUW-117">
          <mxGeometry y="71" width="97.35347637814432" height="13" as="geometry" />
        </mxCell>
        <mxCell id="D1OQs9bCTMTkSIJRtyUW-173" value="" style="shape=partialRectangle;connectable=0;strokeColor=inherit;overflow=hidden;fillColor=#ff9933;top=0;left=0;bottom=0;right=0;pointerEvents=1;fontSize=18;html=1;fontFamily=Times New Roman;" vertex="1" parent="D1OQs9bCTMTkSIJRtyUW-172">
          <mxGeometry width="13" height="13" as="geometry">
            <mxRectangle width="13" height="13" as="alternateBounds" />
          </mxGeometry>
        </mxCell>
        <mxCell id="D1OQs9bCTMTkSIJRtyUW-174" value="" style="shape=partialRectangle;connectable=0;strokeColor=inherit;overflow=hidden;fillColor=none;top=0;left=0;bottom=0;right=0;pointerEvents=1;fontSize=18;html=1;fontFamily=Times New Roman;" vertex="1" parent="D1OQs9bCTMTkSIJRtyUW-172">
          <mxGeometry x="13" width="12" height="13" as="geometry">
            <mxRectangle width="12" height="13" as="alternateBounds" />
          </mxGeometry>
        </mxCell>
        <mxCell id="D1OQs9bCTMTkSIJRtyUW-175" value="" style="shape=partialRectangle;connectable=0;strokeColor=inherit;overflow=hidden;fillColor=none;top=0;left=0;bottom=0;right=0;pointerEvents=1;fontSize=18;html=1;fontFamily=Times New Roman;" vertex="1" parent="D1OQs9bCTMTkSIJRtyUW-172">
          <mxGeometry x="25" width="11" height="13" as="geometry">
            <mxRectangle width="11" height="13" as="alternateBounds" />
          </mxGeometry>
        </mxCell>
        <mxCell id="D1OQs9bCTMTkSIJRtyUW-176" value="" style="shape=partialRectangle;connectable=0;strokeColor=inherit;overflow=hidden;fillColor=none;top=0;left=0;bottom=0;right=0;pointerEvents=1;fontSize=18;html=1;fontFamily=Times New Roman;" vertex="1" parent="D1OQs9bCTMTkSIJRtyUW-172">
          <mxGeometry x="36" width="12" height="13" as="geometry">
            <mxRectangle width="12" height="13" as="alternateBounds" />
          </mxGeometry>
        </mxCell>
        <mxCell id="D1OQs9bCTMTkSIJRtyUW-177" value="" style="shape=partialRectangle;connectable=0;strokeColor=inherit;overflow=hidden;fillColor=#DBDBDB;top=0;left=0;bottom=0;right=0;pointerEvents=1;fontSize=18;html=1;fontFamily=Times New Roman;" vertex="1" parent="D1OQs9bCTMTkSIJRtyUW-172">
          <mxGeometry x="48" width="12" height="13" as="geometry">
            <mxRectangle width="12" height="13" as="alternateBounds" />
          </mxGeometry>
        </mxCell>
        <mxCell id="D1OQs9bCTMTkSIJRtyUW-178" value="" style="shape=partialRectangle;connectable=0;strokeColor=inherit;overflow=hidden;fillColor=#DBDBDB;top=0;left=0;bottom=0;right=0;pointerEvents=1;fontSize=18;html=1;fontFamily=Times New Roman;" vertex="1" parent="D1OQs9bCTMTkSIJRtyUW-172">
          <mxGeometry x="60" width="12" height="13" as="geometry">
            <mxRectangle width="12" height="13" as="alternateBounds" />
          </mxGeometry>
        </mxCell>
        <mxCell id="D1OQs9bCTMTkSIJRtyUW-179" value="" style="shape=partialRectangle;connectable=0;strokeColor=default;overflow=hidden;fillColor=#DBDBDB;top=0;left=0;bottom=0;right=0;pointerEvents=1;fontSize=18;html=1;fontFamily=Times New Roman;" vertex="1" parent="D1OQs9bCTMTkSIJRtyUW-172">
          <mxGeometry x="72" width="13" height="13" as="geometry">
            <mxRectangle width="13" height="13" as="alternateBounds" />
          </mxGeometry>
        </mxCell>
        <mxCell id="D1OQs9bCTMTkSIJRtyUW-180" value="" style="shape=partialRectangle;connectable=0;strokeColor=inherit;overflow=hidden;fillColor=none;top=0;left=0;bottom=0;right=0;pointerEvents=1;fontSize=18;html=1;fontFamily=Times New Roman;" vertex="1" parent="D1OQs9bCTMTkSIJRtyUW-172">
          <mxGeometry x="85" width="12" height="13" as="geometry">
            <mxRectangle width="12" height="13" as="alternateBounds" />
          </mxGeometry>
        </mxCell>
        <mxCell id="D1OQs9bCTMTkSIJRtyUW-181" value="" style="shape=tableRow;horizontal=0;startSize=0;swimlaneHead=0;swimlaneBody=0;strokeColor=inherit;top=0;left=0;bottom=0;right=0;collapsible=0;dropTarget=0;fillColor=none;points=[[0,0.5],[1,0.5]];portConstraint=eastwest;fontSize=18;html=1;fontFamily=Times New Roman;" vertex="1" parent="D1OQs9bCTMTkSIJRtyUW-117">
          <mxGeometry y="84" width="97.35347637814432" height="10" as="geometry" />
        </mxCell>
        <mxCell id="D1OQs9bCTMTkSIJRtyUW-182" value="" style="shape=partialRectangle;connectable=0;strokeColor=inherit;overflow=hidden;fillColor=none;top=0;left=0;bottom=0;right=0;pointerEvents=1;fontSize=18;html=1;fontFamily=Times New Roman;" vertex="1" parent="D1OQs9bCTMTkSIJRtyUW-181">
          <mxGeometry width="13" height="10" as="geometry">
            <mxRectangle width="13" height="10" as="alternateBounds" />
          </mxGeometry>
        </mxCell>
        <mxCell id="D1OQs9bCTMTkSIJRtyUW-183" value="" style="shape=partialRectangle;connectable=0;strokeColor=inherit;overflow=hidden;fillColor=none;top=0;left=0;bottom=0;right=0;pointerEvents=1;fontSize=18;html=1;fontFamily=Times New Roman;" vertex="1" parent="D1OQs9bCTMTkSIJRtyUW-181">
          <mxGeometry x="13" width="12" height="10" as="geometry">
            <mxRectangle width="12" height="10" as="alternateBounds" />
          </mxGeometry>
        </mxCell>
        <mxCell id="D1OQs9bCTMTkSIJRtyUW-184" value="" style="shape=partialRectangle;connectable=0;strokeColor=inherit;overflow=hidden;fillColor=none;top=0;left=0;bottom=0;right=0;pointerEvents=1;fontSize=18;html=1;fontFamily=Times New Roman;" vertex="1" parent="D1OQs9bCTMTkSIJRtyUW-181">
          <mxGeometry x="25" width="11" height="10" as="geometry">
            <mxRectangle width="11" height="10" as="alternateBounds" />
          </mxGeometry>
        </mxCell>
        <mxCell id="D1OQs9bCTMTkSIJRtyUW-185" value="" style="shape=partialRectangle;connectable=0;strokeColor=inherit;overflow=hidden;fillColor=none;top=0;left=0;bottom=0;right=0;pointerEvents=1;fontSize=18;html=1;fontFamily=Times New Roman;" vertex="1" parent="D1OQs9bCTMTkSIJRtyUW-181">
          <mxGeometry x="36" width="12" height="10" as="geometry">
            <mxRectangle width="12" height="10" as="alternateBounds" />
          </mxGeometry>
        </mxCell>
        <mxCell id="D1OQs9bCTMTkSIJRtyUW-186" value="" style="shape=partialRectangle;connectable=0;strokeColor=inherit;overflow=hidden;fillColor=#DBDBDB;top=0;left=0;bottom=0;right=0;pointerEvents=1;fontSize=18;html=1;fontFamily=Times New Roman;" vertex="1" parent="D1OQs9bCTMTkSIJRtyUW-181">
          <mxGeometry x="48" width="12" height="10" as="geometry">
            <mxRectangle width="12" height="10" as="alternateBounds" />
          </mxGeometry>
        </mxCell>
        <mxCell id="D1OQs9bCTMTkSIJRtyUW-187" value="" style="shape=partialRectangle;connectable=0;strokeColor=inherit;overflow=hidden;fillColor=none;top=0;left=0;bottom=0;right=0;pointerEvents=1;fontSize=18;html=1;fontFamily=Times New Roman;" vertex="1" parent="D1OQs9bCTMTkSIJRtyUW-181">
          <mxGeometry x="60" width="12" height="10" as="geometry">
            <mxRectangle width="12" height="10" as="alternateBounds" />
          </mxGeometry>
        </mxCell>
        <mxCell id="D1OQs9bCTMTkSIJRtyUW-188" value="" style="shape=partialRectangle;connectable=0;strokeColor=inherit;overflow=hidden;fillColor=none;top=0;left=0;bottom=0;right=0;pointerEvents=1;fontSize=18;html=1;fontFamily=Times New Roman;" vertex="1" parent="D1OQs9bCTMTkSIJRtyUW-181">
          <mxGeometry x="72" width="13" height="10" as="geometry">
            <mxRectangle width="13" height="10" as="alternateBounds" />
          </mxGeometry>
        </mxCell>
        <mxCell id="D1OQs9bCTMTkSIJRtyUW-189" value="" style="shape=partialRectangle;connectable=0;strokeColor=default;overflow=hidden;fillColor=#DBDBDB;top=0;left=0;bottom=0;right=0;pointerEvents=1;fontSize=18;html=1;fontFamily=Times New Roman;" vertex="1" parent="D1OQs9bCTMTkSIJRtyUW-181">
          <mxGeometry x="85" width="12" height="10" as="geometry">
            <mxRectangle width="12" height="10" as="alternateBounds" />
          </mxGeometry>
        </mxCell>
        <mxCell id="D1OQs9bCTMTkSIJRtyUW-190" value="" style="line;strokeWidth=1;direction=south;html=1;fontFamily=Times New Roman;fontSize=18;" vertex="1" parent="D1OQs9bCTMTkSIJRtyUW-116">
          <mxGeometry x="82.54629299858902" y="36.19904648390942" width="4.767673818907216" height="47.675804529201436" as="geometry" />
        </mxCell>
        <mxCell id="D1OQs9bCTMTkSIJRtyUW-191" value="" style="line;strokeWidth=1;direction=south;html=1;fontFamily=Times New Roman;fontSize=18;" vertex="1" parent="D1OQs9bCTMTkSIJRtyUW-116">
          <mxGeometry x="69.7" y="36.19904648390942" width="4.767673818907216" height="47.675804529201436" as="geometry" />
        </mxCell>
        <mxCell id="D1OQs9bCTMTkSIJRtyUW-192" value="" style="line;strokeWidth=1;direction=south;html=1;fontFamily=Times New Roman;fontSize=18;" vertex="1" parent="D1OQs9bCTMTkSIJRtyUW-116">
          <mxGeometry x="45.5" y="12.361144219308706" width="4.767673818907216" height="71.51370679380216" as="geometry" />
        </mxCell>
        <mxCell id="D1OQs9bCTMTkSIJRtyUW-193" value="" style="line;strokeWidth=1;direction=south;html=1;fontFamily=Times New Roman;fontSize=18;" vertex="1" parent="D1OQs9bCTMTkSIJRtyUW-116">
          <mxGeometry x="33.55525178806015" y="13.314660309892734" width="4.767673818907216" height="38.14064362336115" as="geometry" />
        </mxCell>
        <mxCell id="D1OQs9bCTMTkSIJRtyUW-194" value="" style="line;strokeWidth=1;direction=south;html=1;fontFamily=Times New Roman;fontSize=18;" vertex="1" parent="D1OQs9bCTMTkSIJRtyUW-116">
          <mxGeometry x="57.70792390405295" y="36.19904648390942" width="4.767673818907216" height="47.675804529201436" as="geometry" />
        </mxCell>
        <mxCell id="D1OQs9bCTMTkSIJRtyUW-195" value="" style="line;strokeWidth=1;direction=south;rotation=90;html=1;fontFamily=Times New Roman;fontSize=18;" vertex="1" parent="D1OQs9bCTMTkSIJRtyUW-116">
          <mxGeometry x="63.967879628278126" y="40.5750893921335" width="4.767673818907216" height="39.928486293206205" as="geometry" />
        </mxCell>
        <mxCell id="D1OQs9bCTMTkSIJRtyUW-196" value="" style="line;strokeWidth=1;direction=south;rotation=90;html=1;fontFamily=Times New Roman;fontSize=18;" vertex="1" parent="D1OQs9bCTMTkSIJRtyUW-116">
          <mxGeometry x="70.54484649442907" y="49" width="4.767673818907216" height="49.08224076281288" as="geometry" />
        </mxCell>
        <mxCell id="D1OQs9bCTMTkSIJRtyUW-197" value="" style="line;strokeWidth=1;direction=south;rotation=0;html=1;fontFamily=Times New Roman;fontSize=18;" vertex="1" parent="D1OQs9bCTMTkSIJRtyUW-116">
          <mxGeometry x="94.99347783778525" y="34.292014302741364" width="4.767673818907216" height="49.5828367103695" as="geometry" />
        </mxCell>
        <mxCell id="D1OQs9bCTMTkSIJRtyUW-198" value="" style="line;strokeWidth=1;direction=south;rotation=90;html=1;fontFamily=Times New Roman;fontSize=18;" vertex="1" parent="D1OQs9bCTMTkSIJRtyUW-116">
          <mxGeometry x="63.58404271882452" y="17.128724672228845" width="4.767673818907216" height="62.93206197854589" as="geometry" />
        </mxCell>
        <mxCell id="D1OQs9bCTMTkSIJRtyUW-199" value="" style="line;strokeWidth=1;direction=south;rotation=90;html=1;fontFamily=Times New Roman;fontSize=18;" vertex="1" parent="D1OQs9bCTMTkSIJRtyUW-116">
          <mxGeometry x="46.14" y="-12.5" width="4.77" height="97.87" as="geometry" />
        </mxCell>
        <mxCell id="D1OQs9bCTMTkSIJRtyUW-200" value="" style="line;strokeWidth=1;direction=south;rotation=90;html=1;fontFamily=Times New Roman;fontSize=18;" vertex="1" parent="D1OQs9bCTMTkSIJRtyUW-116">
          <mxGeometry x="43.09" y="-21.4" width="4.77" height="91.92" as="geometry" />
        </mxCell>
        <mxCell id="D1OQs9bCTMTkSIJRtyUW-201" value="" style="line;strokeWidth=1;direction=south;rotation=0;html=1;fontFamily=Times New Roman;fontSize=18;" vertex="1" parent="D1OQs9bCTMTkSIJRtyUW-116">
          <mxGeometry x="10.6" width="4.767673818907216" height="50.53635280095352" as="geometry" />
        </mxCell>
        <mxCell id="D1OQs9bCTMTkSIJRtyUW-202" value="" style="line;strokeWidth=1;direction=south;rotation=0;html=1;fontFamily=Times New Roman;fontSize=18;" vertex="1" parent="D1OQs9bCTMTkSIJRtyUW-116">
          <mxGeometry x="22.531905317958454" width="4.767673818907216" height="50.53635280095352" as="geometry" />
        </mxCell>
        <mxCell id="D1OQs9bCTMTkSIJRtyUW-203" value="" style="line;strokeWidth=1;direction=south;html=1;fontFamily=Times New Roman;fontSize=18;" vertex="1" parent="D1OQs9bCTMTkSIJRtyUW-116">
          <mxGeometry x="-2.383836909453608" y="-10.476758045292014" width="4.767673818907216" height="14.779499404052444" as="geometry" />
        </mxCell>
        <mxCell id="D1OQs9bCTMTkSIJRtyUW-204" value="" style="line;strokeWidth=1;direction=south;html=1;fontFamily=Times New Roman;fontSize=18;" vertex="1" parent="D1OQs9bCTMTkSIJRtyUW-116">
          <mxGeometry x="55.091151656692475" y="17.129451728247886" width="10" height="40" as="geometry" />
        </mxCell>
        <mxCell id="D1OQs9bCTMTkSIJRtyUW-205" value="" style="line;strokeWidth=1;direction=south;rotation=0;html=1;fontFamily=Times New Roman;fontSize=18;" vertex="1" parent="D1OQs9bCTMTkSIJRtyUW-116">
          <mxGeometry x="-7.7488483433076" y="9.109451728247905" width="15.35" height="64.41" as="geometry" />
        </mxCell>
        <mxCell id="D1OQs9bCTMTkSIJRtyUW-206" value="" style="line;strokeWidth=1;direction=south;rotation=90;html=1;fontFamily=Times New Roman;fontSize=18;" vertex="1" parent="D1OQs9bCTMTkSIJRtyUW-115">
          <mxGeometry x="12.038376392740721" y="-10" width="4.767673818907216" height="28.84386174016687" as="geometry" />
        </mxCell>
        <mxCell id="D1OQs9bCTMTkSIJRtyUW-207" value="" style="line;strokeWidth=1;direction=south;rotation=90;html=1;fontFamily=Times New Roman;fontSize=18;" vertex="1" parent="D1OQs9bCTMTkSIJRtyUW-115">
          <mxGeometry x="22.203056974650902" y="-8.4016686531585" width="4.767673818907216" height="49.168057210965436" as="geometry" />
        </mxCell>
        <mxCell id="D1OQs9bCTMTkSIJRtyUW-208" value="" style="line;strokeWidth=1;direction=south;rotation=90;html=1;fontFamily=Times New Roman;fontSize=18;" vertex="1" parent="D1OQs9bCTMTkSIJRtyUW-115">
          <mxGeometry x="70.74985646864205" y="62.3" width="4.767673818907216" height="48.86769964243147" as="geometry" />
        </mxCell>
        <mxCell id="D1OQs9bCTMTkSIJRtyUW-209" value="" style="line;strokeWidth=1;direction=south;rotation=90;html=1;fontFamily=Times New Roman;fontSize=18;" vertex="1" parent="D1OQs9bCTMTkSIJRtyUW-115">
          <mxGeometry x="7.270702573833504" y="-17.27056019070322" width="4.767673818907216" height="19.308700834326583" as="geometry" />
        </mxCell>
        <mxCell id="D1OQs9bCTMTkSIJRtyUW-210" value="" style="line;strokeWidth=1;direction=south;aspect=fixed;html=1;fontFamily=Times New Roman;fontSize=18;" vertex="1" parent="D1OQs9bCTMTkSIJRtyUW-115">
          <mxGeometry x="13.309999999999945" y="-7.400000000000091" width="0.29" height="4" as="geometry" />
        </mxCell>
        <mxCell id="D1OQs9bCTMTkSIJRtyUW-211" value="" style="shape=table;startSize=0;container=1;collapsible=0;childLayout=tableLayout;fontSize=18;html=1;fontFamily=Times New Roman;" vertex="1" parent="D1OQs9bCTMTkSIJRtyUW-17">
          <mxGeometry x="10.378848343307482" y="2.388790226460003" width="97.35347637814432" height="96.35160905840287" as="geometry" />
        </mxCell>
        <mxCell id="D1OQs9bCTMTkSIJRtyUW-212" value="" style="shape=tableRow;horizontal=0;startSize=0;swimlaneHead=0;swimlaneBody=0;strokeColor=inherit;top=0;left=0;bottom=0;right=0;collapsible=0;dropTarget=0;fillColor=none;points=[[0,0.5],[1,0.5]];portConstraint=eastwest;fontSize=18;html=1;fontFamily=Times New Roman;" vertex="1" parent="D1OQs9bCTMTkSIJRtyUW-211">
          <mxGeometry width="97.35347637814432" height="12" as="geometry" />
        </mxCell>
        <mxCell id="D1OQs9bCTMTkSIJRtyUW-213" value="" style="shape=partialRectangle;connectable=0;strokeColor=#b85450;overflow=hidden;fillColor=#FFE6CC;top=0;left=0;bottom=0;right=0;pointerEvents=1;fontSize=18;html=1;fontFamily=Times New Roman;" vertex="1" parent="D1OQs9bCTMTkSIJRtyUW-212">
          <mxGeometry width="13" height="12" as="geometry">
            <mxRectangle width="13" height="12" as="alternateBounds" />
          </mxGeometry>
        </mxCell>
        <mxCell id="D1OQs9bCTMTkSIJRtyUW-214" value="" style="shape=partialRectangle;connectable=0;strokeColor=inherit;overflow=hidden;fillColor=#ffcc99;top=0;left=0;bottom=0;right=0;pointerEvents=1;fontSize=18;html=1;fontFamily=Times New Roman;" vertex="1" parent="D1OQs9bCTMTkSIJRtyUW-212">
          <mxGeometry x="13" width="12" height="12" as="geometry">
            <mxRectangle width="12" height="12" as="alternateBounds" />
          </mxGeometry>
        </mxCell>
        <mxCell id="D1OQs9bCTMTkSIJRtyUW-215" value="" style="shape=partialRectangle;connectable=0;strokeColor=inherit;overflow=hidden;fillColor=none;top=0;left=0;bottom=0;right=0;pointerEvents=1;fontSize=18;html=1;fontFamily=Times New Roman;" vertex="1" parent="D1OQs9bCTMTkSIJRtyUW-212">
          <mxGeometry x="25" width="11" height="12" as="geometry">
            <mxRectangle width="11" height="12" as="alternateBounds" />
          </mxGeometry>
        </mxCell>
        <mxCell id="D1OQs9bCTMTkSIJRtyUW-216" value="" style="shape=partialRectangle;connectable=0;strokeColor=inherit;overflow=hidden;fillColor=none;top=0;left=0;bottom=0;right=0;pointerEvents=1;fontSize=18;html=1;fontFamily=Times New Roman;" vertex="1" parent="D1OQs9bCTMTkSIJRtyUW-212">
          <mxGeometry x="36" width="12" height="12" as="geometry">
            <mxRectangle width="12" height="12" as="alternateBounds" />
          </mxGeometry>
        </mxCell>
        <mxCell id="D1OQs9bCTMTkSIJRtyUW-217" value="" style="shape=partialRectangle;connectable=0;strokeColor=inherit;overflow=hidden;fillColor=none;top=0;left=0;bottom=0;right=0;pointerEvents=1;fontSize=18;html=1;fontFamily=Times New Roman;" vertex="1" parent="D1OQs9bCTMTkSIJRtyUW-212">
          <mxGeometry x="48" width="12" height="12" as="geometry">
            <mxRectangle width="12" height="12" as="alternateBounds" />
          </mxGeometry>
        </mxCell>
        <mxCell id="D1OQs9bCTMTkSIJRtyUW-218" value="" style="shape=partialRectangle;connectable=0;strokeColor=inherit;overflow=hidden;fillColor=none;top=0;left=0;bottom=0;right=0;pointerEvents=1;fontSize=18;html=1;fontFamily=Times New Roman;" vertex="1" parent="D1OQs9bCTMTkSIJRtyUW-212">
          <mxGeometry x="60" width="12" height="12" as="geometry">
            <mxRectangle width="12" height="12" as="alternateBounds" />
          </mxGeometry>
        </mxCell>
        <mxCell id="D1OQs9bCTMTkSIJRtyUW-219" value="" style="shape=partialRectangle;connectable=0;strokeColor=inherit;overflow=hidden;fillColor=none;top=0;left=0;bottom=0;right=0;pointerEvents=1;fontSize=18;html=1;fontFamily=Times New Roman;" vertex="1" parent="D1OQs9bCTMTkSIJRtyUW-212">
          <mxGeometry x="72" width="13" height="12" as="geometry">
            <mxRectangle width="13" height="12" as="alternateBounds" />
          </mxGeometry>
        </mxCell>
        <mxCell id="D1OQs9bCTMTkSIJRtyUW-220" value="" style="shape=partialRectangle;connectable=0;strokeColor=inherit;overflow=hidden;fillColor=none;top=0;left=0;bottom=0;right=0;pointerEvents=1;fontSize=18;html=1;fontFamily=Times New Roman;" vertex="1" parent="D1OQs9bCTMTkSIJRtyUW-212">
          <mxGeometry x="85" width="12" height="12" as="geometry">
            <mxRectangle width="12" height="12" as="alternateBounds" />
          </mxGeometry>
        </mxCell>
        <mxCell id="D1OQs9bCTMTkSIJRtyUW-221" value="" style="shape=tableRow;horizontal=0;startSize=0;swimlaneHead=0;swimlaneBody=0;strokeColor=inherit;top=0;left=0;bottom=0;right=0;collapsible=0;dropTarget=0;fillColor=none;points=[[0,0.5],[1,0.5]];portConstraint=eastwest;fontSize=18;html=1;fontFamily=Times New Roman;" vertex="1" parent="D1OQs9bCTMTkSIJRtyUW-211">
          <mxGeometry y="12" width="97.35347637814432" height="12" as="geometry" />
        </mxCell>
        <mxCell id="D1OQs9bCTMTkSIJRtyUW-222" value="" style="shape=partialRectangle;connectable=0;strokeColor=inherit;overflow=hidden;fillColor=none;top=0;left=0;bottom=0;right=0;pointerEvents=1;fontSize=18;html=1;fontFamily=Times New Roman;" vertex="1" parent="D1OQs9bCTMTkSIJRtyUW-221">
          <mxGeometry width="13" height="12" as="geometry">
            <mxRectangle width="13" height="12" as="alternateBounds" />
          </mxGeometry>
        </mxCell>
        <mxCell id="D1OQs9bCTMTkSIJRtyUW-223" value="" style="shape=partialRectangle;connectable=0;strokeColor=default;overflow=hidden;fillColor=#FFE6CC;top=0;left=0;bottom=0;right=0;pointerEvents=1;fontSize=18;html=1;fontFamily=Times New Roman;" vertex="1" parent="D1OQs9bCTMTkSIJRtyUW-221">
          <mxGeometry x="13" width="12" height="12" as="geometry">
            <mxRectangle width="12" height="12" as="alternateBounds" />
          </mxGeometry>
        </mxCell>
        <mxCell id="D1OQs9bCTMTkSIJRtyUW-224" value="" style="shape=partialRectangle;connectable=0;strokeColor=inherit;overflow=hidden;fillColor=none;top=0;left=0;bottom=0;right=0;pointerEvents=1;fontSize=18;html=1;fontFamily=Times New Roman;" vertex="1" parent="D1OQs9bCTMTkSIJRtyUW-221">
          <mxGeometry x="25" width="11" height="12" as="geometry">
            <mxRectangle width="11" height="12" as="alternateBounds" />
          </mxGeometry>
        </mxCell>
        <mxCell id="D1OQs9bCTMTkSIJRtyUW-225" value="" style="shape=partialRectangle;connectable=0;strokeColor=inherit;overflow=hidden;fillColor=none;top=0;left=0;bottom=0;right=0;pointerEvents=1;fontSize=18;html=1;fontFamily=Times New Roman;" vertex="1" parent="D1OQs9bCTMTkSIJRtyUW-221">
          <mxGeometry x="36" width="12" height="12" as="geometry">
            <mxRectangle width="12" height="12" as="alternateBounds" />
          </mxGeometry>
        </mxCell>
        <mxCell id="D1OQs9bCTMTkSIJRtyUW-226" value="" style="shape=partialRectangle;connectable=0;strokeColor=inherit;overflow=hidden;fillColor=none;top=0;left=0;bottom=0;right=0;pointerEvents=1;fontSize=18;html=1;fontFamily=Times New Roman;" vertex="1" parent="D1OQs9bCTMTkSIJRtyUW-221">
          <mxGeometry x="48" width="12" height="12" as="geometry">
            <mxRectangle width="12" height="12" as="alternateBounds" />
          </mxGeometry>
        </mxCell>
        <mxCell id="D1OQs9bCTMTkSIJRtyUW-227" value="" style="shape=partialRectangle;connectable=0;strokeColor=inherit;overflow=hidden;fillColor=none;top=0;left=0;bottom=0;right=0;pointerEvents=1;fontSize=18;html=1;fontFamily=Times New Roman;" vertex="1" parent="D1OQs9bCTMTkSIJRtyUW-221">
          <mxGeometry x="60" width="12" height="12" as="geometry">
            <mxRectangle width="12" height="12" as="alternateBounds" />
          </mxGeometry>
        </mxCell>
        <mxCell id="D1OQs9bCTMTkSIJRtyUW-228" value="" style="shape=partialRectangle;connectable=0;strokeColor=inherit;overflow=hidden;fillColor=none;top=0;left=0;bottom=0;right=0;pointerEvents=1;fontSize=18;html=1;fontFamily=Times New Roman;" vertex="1" parent="D1OQs9bCTMTkSIJRtyUW-221">
          <mxGeometry x="72" width="13" height="12" as="geometry">
            <mxRectangle width="13" height="12" as="alternateBounds" />
          </mxGeometry>
        </mxCell>
        <mxCell id="D1OQs9bCTMTkSIJRtyUW-229" value="" style="shape=partialRectangle;connectable=0;strokeColor=inherit;overflow=hidden;fillColor=none;top=0;left=0;bottom=0;right=0;pointerEvents=1;fontSize=18;html=1;fontFamily=Times New Roman;" vertex="1" parent="D1OQs9bCTMTkSIJRtyUW-221">
          <mxGeometry x="85" width="12" height="12" as="geometry">
            <mxRectangle width="12" height="12" as="alternateBounds" />
          </mxGeometry>
        </mxCell>
        <mxCell id="D1OQs9bCTMTkSIJRtyUW-230" value="" style="shape=tableRow;horizontal=0;startSize=0;swimlaneHead=0;swimlaneBody=0;strokeColor=inherit;top=0;left=0;bottom=0;right=0;collapsible=0;dropTarget=0;fillColor=none;points=[[0,0.5],[1,0.5]];portConstraint=eastwest;fontSize=18;html=1;fontFamily=Times New Roman;" vertex="1" parent="D1OQs9bCTMTkSIJRtyUW-211">
          <mxGeometry y="24" width="97.35347637814432" height="11" as="geometry" />
        </mxCell>
        <mxCell id="D1OQs9bCTMTkSIJRtyUW-231" value="" style="shape=partialRectangle;connectable=0;strokeColor=inherit;overflow=hidden;fillColor=none;top=0;left=0;bottom=0;right=0;pointerEvents=1;fontSize=18;html=1;fontFamily=Times New Roman;" vertex="1" parent="D1OQs9bCTMTkSIJRtyUW-230">
          <mxGeometry width="13" height="11" as="geometry">
            <mxRectangle width="13" height="11" as="alternateBounds" />
          </mxGeometry>
        </mxCell>
        <mxCell id="D1OQs9bCTMTkSIJRtyUW-232" value="" style="shape=partialRectangle;connectable=0;strokeColor=inherit;overflow=hidden;fillColor=#f5f5f5;top=0;left=0;bottom=0;right=0;pointerEvents=1;fontSize=18;html=1;fontFamily=Times New Roman;" vertex="1" parent="D1OQs9bCTMTkSIJRtyUW-230">
          <mxGeometry x="13" width="12" height="11" as="geometry">
            <mxRectangle width="12" height="11" as="alternateBounds" />
          </mxGeometry>
        </mxCell>
        <mxCell id="D1OQs9bCTMTkSIJRtyUW-233" value="" style="shape=partialRectangle;connectable=0;strokeColor=#b85450;overflow=hidden;fillColor=#FFCC99;top=0;left=0;bottom=0;right=0;pointerEvents=1;fontSize=18;html=1;fontFamily=Times New Roman;" vertex="1" parent="D1OQs9bCTMTkSIJRtyUW-230">
          <mxGeometry x="25" width="11" height="11" as="geometry">
            <mxRectangle width="11" height="11" as="alternateBounds" />
          </mxGeometry>
        </mxCell>
        <mxCell id="D1OQs9bCTMTkSIJRtyUW-234" value="" style="shape=partialRectangle;connectable=0;strokeColor=#b85450;overflow=hidden;fillColor=#ffe6cc;top=0;left=0;bottom=0;right=0;pointerEvents=1;fontSize=18;html=1;fontFamily=Times New Roman;" vertex="1" parent="D1OQs9bCTMTkSIJRtyUW-230">
          <mxGeometry x="36" width="12" height="11" as="geometry">
            <mxRectangle width="12" height="11" as="alternateBounds" />
          </mxGeometry>
        </mxCell>
        <mxCell id="D1OQs9bCTMTkSIJRtyUW-235" value="" style="shape=partialRectangle;connectable=0;strokeColor=inherit;overflow=hidden;fillColor=none;top=0;left=0;bottom=0;right=0;pointerEvents=1;fontSize=18;html=1;fontFamily=Times New Roman;" vertex="1" parent="D1OQs9bCTMTkSIJRtyUW-230">
          <mxGeometry x="48" width="12" height="11" as="geometry">
            <mxRectangle width="12" height="11" as="alternateBounds" />
          </mxGeometry>
        </mxCell>
        <mxCell id="D1OQs9bCTMTkSIJRtyUW-236" value="" style="shape=partialRectangle;connectable=0;strokeColor=inherit;overflow=hidden;fillColor=none;top=0;left=0;bottom=0;right=0;pointerEvents=1;fontSize=18;html=1;fontFamily=Times New Roman;" vertex="1" parent="D1OQs9bCTMTkSIJRtyUW-230">
          <mxGeometry x="60" width="12" height="11" as="geometry">
            <mxRectangle width="12" height="11" as="alternateBounds" />
          </mxGeometry>
        </mxCell>
        <mxCell id="D1OQs9bCTMTkSIJRtyUW-237" value="" style="shape=partialRectangle;connectable=0;strokeColor=inherit;overflow=hidden;fillColor=#FFE6CC;top=0;left=0;bottom=0;right=0;pointerEvents=1;fontSize=18;html=1;fontFamily=Times New Roman;" vertex="1" parent="D1OQs9bCTMTkSIJRtyUW-230">
          <mxGeometry x="72" width="13" height="11" as="geometry">
            <mxRectangle width="13" height="11" as="alternateBounds" />
          </mxGeometry>
        </mxCell>
        <mxCell id="D1OQs9bCTMTkSIJRtyUW-238" value="" style="shape=partialRectangle;connectable=0;strokeColor=inherit;overflow=hidden;fillColor=none;top=0;left=0;bottom=0;right=0;pointerEvents=1;fontSize=18;html=1;fontFamily=Times New Roman;" vertex="1" parent="D1OQs9bCTMTkSIJRtyUW-230">
          <mxGeometry x="85" width="12" height="11" as="geometry">
            <mxRectangle width="12" height="11" as="alternateBounds" />
          </mxGeometry>
        </mxCell>
        <mxCell id="D1OQs9bCTMTkSIJRtyUW-239" value="" style="shape=tableRow;horizontal=0;startSize=0;swimlaneHead=0;swimlaneBody=0;strokeColor=inherit;top=0;left=0;bottom=0;right=0;collapsible=0;dropTarget=0;fillColor=none;points=[[0,0.5],[1,0.5]];portConstraint=eastwest;fontSize=18;html=1;fontFamily=Times New Roman;" vertex="1" parent="D1OQs9bCTMTkSIJRtyUW-211">
          <mxGeometry y="35" width="97.35347637814432" height="12" as="geometry" />
        </mxCell>
        <mxCell id="D1OQs9bCTMTkSIJRtyUW-240" value="" style="shape=partialRectangle;connectable=0;strokeColor=#b85450;overflow=hidden;fillColor=none;top=0;left=0;bottom=0;right=0;pointerEvents=1;fontSize=18;html=1;fontFamily=Times New Roman;" vertex="1" parent="D1OQs9bCTMTkSIJRtyUW-239">
          <mxGeometry width="13" height="12" as="geometry">
            <mxRectangle width="13" height="12" as="alternateBounds" />
          </mxGeometry>
        </mxCell>
        <mxCell id="D1OQs9bCTMTkSIJRtyUW-241" value="" style="shape=partialRectangle;connectable=0;strokeColor=#b85450;overflow=hidden;fillColor=#FFE6CC;top=0;left=0;bottom=0;right=0;pointerEvents=1;fontSize=18;html=1;fontFamily=Times New Roman;" vertex="1" parent="D1OQs9bCTMTkSIJRtyUW-239">
          <mxGeometry x="13" width="12" height="12" as="geometry">
            <mxRectangle width="12" height="12" as="alternateBounds" />
          </mxGeometry>
        </mxCell>
        <mxCell id="D1OQs9bCTMTkSIJRtyUW-242" value="" style="shape=partialRectangle;connectable=0;strokeColor=#b85450;overflow=hidden;fillColor=#FF9933;top=0;left=0;bottom=0;right=0;pointerEvents=1;fontSize=18;html=1;fontFamily=Times New Roman;" vertex="1" parent="D1OQs9bCTMTkSIJRtyUW-239">
          <mxGeometry x="25" width="11" height="12" as="geometry">
            <mxRectangle width="11" height="12" as="alternateBounds" />
          </mxGeometry>
        </mxCell>
        <mxCell id="D1OQs9bCTMTkSIJRtyUW-243" value="" style="shape=partialRectangle;connectable=0;strokeColor=#b85450;overflow=hidden;fillColor=#ffcc99;top=0;left=0;bottom=0;right=0;pointerEvents=1;fontSize=18;html=1;fontFamily=Times New Roman;" vertex="1" parent="D1OQs9bCTMTkSIJRtyUW-239">
          <mxGeometry x="36" width="12" height="12" as="geometry">
            <mxRectangle width="12" height="12" as="alternateBounds" />
          </mxGeometry>
        </mxCell>
        <mxCell id="D1OQs9bCTMTkSIJRtyUW-244" value="" style="shape=partialRectangle;connectable=0;overflow=hidden;top=0;left=0;bottom=0;right=0;pointerEvents=1;fontSize=18;html=1;fontFamily=Times New Roman;" vertex="1" parent="D1OQs9bCTMTkSIJRtyUW-239">
          <mxGeometry x="48" width="12" height="12" as="geometry">
            <mxRectangle width="12" height="12" as="alternateBounds" />
          </mxGeometry>
        </mxCell>
        <mxCell id="D1OQs9bCTMTkSIJRtyUW-245" value="" style="shape=partialRectangle;connectable=0;strokeColor=inherit;overflow=hidden;fillColor=none;top=0;left=0;bottom=0;right=0;pointerEvents=1;fontSize=18;html=1;fontFamily=Times New Roman;" vertex="1" parent="D1OQs9bCTMTkSIJRtyUW-239">
          <mxGeometry x="60" width="12" height="12" as="geometry">
            <mxRectangle width="12" height="12" as="alternateBounds" />
          </mxGeometry>
        </mxCell>
        <mxCell id="D1OQs9bCTMTkSIJRtyUW-246" value="" style="shape=partialRectangle;connectable=0;strokeColor=inherit;overflow=hidden;fillColor=#ff9933;top=0;left=0;bottom=0;right=0;pointerEvents=1;fontSize=18;html=1;fontFamily=Times New Roman;" vertex="1" parent="D1OQs9bCTMTkSIJRtyUW-239">
          <mxGeometry x="72" width="13" height="12" as="geometry">
            <mxRectangle width="13" height="12" as="alternateBounds" />
          </mxGeometry>
        </mxCell>
        <mxCell id="D1OQs9bCTMTkSIJRtyUW-247" value="" style="shape=partialRectangle;connectable=0;strokeColor=inherit;overflow=hidden;fillColor=none;top=0;left=0;bottom=0;right=0;pointerEvents=1;fontSize=18;html=1;fontFamily=Times New Roman;" vertex="1" parent="D1OQs9bCTMTkSIJRtyUW-239">
          <mxGeometry x="85" width="12" height="12" as="geometry">
            <mxRectangle width="12" height="12" as="alternateBounds" />
          </mxGeometry>
        </mxCell>
        <mxCell id="D1OQs9bCTMTkSIJRtyUW-248" value="" style="shape=tableRow;horizontal=0;startSize=0;swimlaneHead=0;swimlaneBody=0;strokeColor=inherit;top=0;left=0;bottom=0;right=0;collapsible=0;dropTarget=0;fillColor=none;points=[[0,0.5],[1,0.5]];portConstraint=eastwest;fontSize=18;html=1;fontFamily=Times New Roman;" vertex="1" parent="D1OQs9bCTMTkSIJRtyUW-211">
          <mxGeometry y="47" width="97.35347637814432" height="12" as="geometry" />
        </mxCell>
        <mxCell id="D1OQs9bCTMTkSIJRtyUW-249" value="" style="shape=partialRectangle;connectable=0;strokeColor=inherit;overflow=hidden;fillColor=none;top=0;left=0;bottom=0;right=0;pointerEvents=1;fontSize=18;html=1;fontFamily=Times New Roman;" vertex="1" parent="D1OQs9bCTMTkSIJRtyUW-248">
          <mxGeometry width="13" height="12" as="geometry">
            <mxRectangle width="13" height="12" as="alternateBounds" />
          </mxGeometry>
        </mxCell>
        <mxCell id="D1OQs9bCTMTkSIJRtyUW-250" value="" style="shape=partialRectangle;connectable=0;strokeColor=inherit;overflow=hidden;fillColor=none;top=0;left=0;bottom=0;right=0;pointerEvents=1;fontSize=18;html=1;fontFamily=Times New Roman;" vertex="1" parent="D1OQs9bCTMTkSIJRtyUW-248">
          <mxGeometry x="13" width="12" height="12" as="geometry">
            <mxRectangle width="12" height="12" as="alternateBounds" />
          </mxGeometry>
        </mxCell>
        <mxCell id="D1OQs9bCTMTkSIJRtyUW-251" value="" style="shape=partialRectangle;connectable=0;strokeColor=inherit;overflow=hidden;fillColor=none;top=0;left=0;bottom=0;right=0;pointerEvents=1;fontSize=18;html=1;fontFamily=Times New Roman;" vertex="1" parent="D1OQs9bCTMTkSIJRtyUW-248">
          <mxGeometry x="25" width="11" height="12" as="geometry">
            <mxRectangle width="11" height="12" as="alternateBounds" />
          </mxGeometry>
        </mxCell>
        <mxCell id="D1OQs9bCTMTkSIJRtyUW-252" value="" style="shape=partialRectangle;connectable=0;strokeColor=inherit;overflow=hidden;fillColor=#FFE6CC;top=0;left=0;bottom=0;right=0;pointerEvents=1;fontSize=18;html=1;fontFamily=Times New Roman;" vertex="1" parent="D1OQs9bCTMTkSIJRtyUW-248">
          <mxGeometry x="36" width="12" height="12" as="geometry">
            <mxRectangle width="12" height="12" as="alternateBounds" />
          </mxGeometry>
        </mxCell>
        <mxCell id="D1OQs9bCTMTkSIJRtyUW-253" value="" style="shape=partialRectangle;connectable=0;strokeColor=default;overflow=hidden;fillColor=#FF9933;top=0;left=0;bottom=0;right=0;pointerEvents=1;fontSize=18;html=1;fontFamily=Times New Roman;" vertex="1" parent="D1OQs9bCTMTkSIJRtyUW-248">
          <mxGeometry x="48" width="12" height="12" as="geometry">
            <mxRectangle width="12" height="12" as="alternateBounds" />
          </mxGeometry>
        </mxCell>
        <mxCell id="D1OQs9bCTMTkSIJRtyUW-254" value="" style="shape=partialRectangle;connectable=0;overflow=hidden;top=0;left=0;bottom=0;right=0;pointerEvents=1;fontSize=18;html=1;fontFamily=Times New Roman;" vertex="1" parent="D1OQs9bCTMTkSIJRtyUW-248">
          <mxGeometry x="60" width="12" height="12" as="geometry">
            <mxRectangle width="12" height="12" as="alternateBounds" />
          </mxGeometry>
        </mxCell>
        <mxCell id="D1OQs9bCTMTkSIJRtyUW-255" value="" style="shape=partialRectangle;connectable=0;strokeColor=inherit;overflow=hidden;fillColor=#FFE6CC;top=0;left=0;bottom=0;right=0;pointerEvents=1;fontSize=18;strokeWidth=3;html=1;fontFamily=Times New Roman;" vertex="1" parent="D1OQs9bCTMTkSIJRtyUW-248">
          <mxGeometry x="72" width="13" height="12" as="geometry">
            <mxRectangle width="13" height="12" as="alternateBounds" />
          </mxGeometry>
        </mxCell>
        <mxCell id="D1OQs9bCTMTkSIJRtyUW-256" value="" style="shape=partialRectangle;connectable=0;strokeColor=inherit;overflow=hidden;fillColor=#FFE6CC;top=0;left=0;bottom=0;right=0;pointerEvents=1;fontSize=18;html=1;fontFamily=Times New Roman;" vertex="1" parent="D1OQs9bCTMTkSIJRtyUW-248">
          <mxGeometry x="85" width="12" height="12" as="geometry">
            <mxRectangle width="12" height="12" as="alternateBounds" />
          </mxGeometry>
        </mxCell>
        <mxCell id="D1OQs9bCTMTkSIJRtyUW-257" value="" style="shape=tableRow;horizontal=0;startSize=0;swimlaneHead=0;swimlaneBody=0;strokeColor=inherit;top=0;left=0;bottom=0;right=0;collapsible=0;dropTarget=0;fillColor=none;points=[[0,0.5],[1,0.5]];portConstraint=eastwest;fontSize=18;html=1;fontFamily=Times New Roman;" vertex="1" parent="D1OQs9bCTMTkSIJRtyUW-211">
          <mxGeometry y="59" width="97.35347637814432" height="12" as="geometry" />
        </mxCell>
        <mxCell id="D1OQs9bCTMTkSIJRtyUW-258" value="" style="shape=partialRectangle;connectable=0;strokeColor=inherit;overflow=hidden;fillColor=none;top=0;left=0;bottom=0;right=0;pointerEvents=1;fontSize=18;html=1;fontFamily=Times New Roman;" vertex="1" parent="D1OQs9bCTMTkSIJRtyUW-257">
          <mxGeometry width="13" height="12" as="geometry">
            <mxRectangle width="13" height="12" as="alternateBounds" />
          </mxGeometry>
        </mxCell>
        <mxCell id="D1OQs9bCTMTkSIJRtyUW-259" value="" style="shape=partialRectangle;connectable=0;strokeColor=inherit;overflow=hidden;fillColor=none;top=0;left=0;bottom=0;right=0;pointerEvents=1;fontSize=18;html=1;fontFamily=Times New Roman;" vertex="1" parent="D1OQs9bCTMTkSIJRtyUW-257">
          <mxGeometry x="13" width="12" height="12" as="geometry">
            <mxRectangle width="12" height="12" as="alternateBounds" />
          </mxGeometry>
        </mxCell>
        <mxCell id="D1OQs9bCTMTkSIJRtyUW-260" value="" style="shape=partialRectangle;connectable=0;strokeColor=inherit;overflow=hidden;fillColor=none;top=0;left=0;bottom=0;right=0;pointerEvents=1;fontSize=18;html=1;fontFamily=Times New Roman;" vertex="1" parent="D1OQs9bCTMTkSIJRtyUW-257">
          <mxGeometry x="25" width="11" height="12" as="geometry">
            <mxRectangle width="11" height="12" as="alternateBounds" />
          </mxGeometry>
        </mxCell>
        <mxCell id="D1OQs9bCTMTkSIJRtyUW-261" value="" style="shape=partialRectangle;connectable=0;strokeColor=inherit;overflow=hidden;fillColor=none;top=0;left=0;bottom=0;right=0;pointerEvents=1;fontSize=18;html=1;fontFamily=Times New Roman;" vertex="1" parent="D1OQs9bCTMTkSIJRtyUW-257">
          <mxGeometry x="36" width="12" height="12" as="geometry">
            <mxRectangle width="12" height="12" as="alternateBounds" />
          </mxGeometry>
        </mxCell>
        <mxCell id="D1OQs9bCTMTkSIJRtyUW-262" value="" style="shape=partialRectangle;connectable=0;strokeColor=inherit;overflow=hidden;fillColor=none;top=0;left=0;bottom=0;right=0;pointerEvents=1;fontSize=18;html=1;fontFamily=Times New Roman;" vertex="1" parent="D1OQs9bCTMTkSIJRtyUW-257">
          <mxGeometry x="48" width="12" height="12" as="geometry">
            <mxRectangle width="12" height="12" as="alternateBounds" />
          </mxGeometry>
        </mxCell>
        <mxCell id="D1OQs9bCTMTkSIJRtyUW-263" value="" style="shape=partialRectangle;connectable=0;strokeColor=default;overflow=hidden;fillColor=#FFE6CC;top=0;left=0;bottom=0;right=0;pointerEvents=1;fontSize=18;perimeterSpacing=1;strokeWidth=3;html=1;fontFamily=Times New Roman;" vertex="1" parent="D1OQs9bCTMTkSIJRtyUW-257">
          <mxGeometry x="60" width="12" height="12" as="geometry">
            <mxRectangle width="12" height="12" as="alternateBounds" />
          </mxGeometry>
        </mxCell>
        <mxCell id="D1OQs9bCTMTkSIJRtyUW-264" value="" style="shape=partialRectangle;connectable=0;strokeColor=default;overflow=hidden;fillColor=#FFE6CC;top=0;left=0;bottom=0;right=0;pointerEvents=1;fontSize=18;shadow=0;dashed=1;dashPattern=1 2;gradientColor=none;html=1;fontFamily=Times New Roman;" vertex="1" parent="D1OQs9bCTMTkSIJRtyUW-257">
          <mxGeometry x="72" width="13" height="12" as="geometry">
            <mxRectangle width="13" height="12" as="alternateBounds" />
          </mxGeometry>
        </mxCell>
        <mxCell id="D1OQs9bCTMTkSIJRtyUW-265" value="" style="shape=partialRectangle;connectable=0;strokeColor=inherit;overflow=hidden;fillColor=none;top=0;left=0;bottom=0;right=0;pointerEvents=1;fontSize=18;html=1;fontFamily=Times New Roman;" vertex="1" parent="D1OQs9bCTMTkSIJRtyUW-257">
          <mxGeometry x="85" width="12" height="12" as="geometry">
            <mxRectangle width="12" height="12" as="alternateBounds" />
          </mxGeometry>
        </mxCell>
        <mxCell id="D1OQs9bCTMTkSIJRtyUW-266" value="" style="shape=tableRow;horizontal=0;startSize=0;swimlaneHead=0;swimlaneBody=0;strokeColor=inherit;top=0;left=0;bottom=0;right=0;collapsible=0;dropTarget=0;fillColor=none;points=[[0,0.5],[1,0.5]];portConstraint=eastwest;fontSize=18;html=1;fontFamily=Times New Roman;" vertex="1" parent="D1OQs9bCTMTkSIJRtyUW-211">
          <mxGeometry y="71" width="97.35347637814432" height="13" as="geometry" />
        </mxCell>
        <mxCell id="D1OQs9bCTMTkSIJRtyUW-267" value="" style="shape=partialRectangle;connectable=0;strokeColor=inherit;overflow=hidden;fillColor=none;top=0;left=0;bottom=0;right=0;pointerEvents=1;fontSize=18;html=1;fontFamily=Times New Roman;" vertex="1" parent="D1OQs9bCTMTkSIJRtyUW-266">
          <mxGeometry width="13" height="13" as="geometry">
            <mxRectangle width="13" height="13" as="alternateBounds" />
          </mxGeometry>
        </mxCell>
        <mxCell id="D1OQs9bCTMTkSIJRtyUW-268" value="" style="shape=partialRectangle;connectable=0;strokeColor=inherit;overflow=hidden;fillColor=none;top=0;left=0;bottom=0;right=0;pointerEvents=1;fontSize=18;html=1;fontFamily=Times New Roman;" vertex="1" parent="D1OQs9bCTMTkSIJRtyUW-266">
          <mxGeometry x="13" width="12" height="13" as="geometry">
            <mxRectangle width="12" height="13" as="alternateBounds" />
          </mxGeometry>
        </mxCell>
        <mxCell id="D1OQs9bCTMTkSIJRtyUW-269" value="" style="shape=partialRectangle;connectable=0;strokeColor=inherit;overflow=hidden;fillColor=#FFE6CC;top=0;left=0;bottom=0;right=0;pointerEvents=1;fontSize=18;html=1;fontFamily=Times New Roman;" vertex="1" parent="D1OQs9bCTMTkSIJRtyUW-266">
          <mxGeometry x="25" width="11" height="13" as="geometry">
            <mxRectangle width="11" height="13" as="alternateBounds" />
          </mxGeometry>
        </mxCell>
        <mxCell id="D1OQs9bCTMTkSIJRtyUW-270" value="" style="shape=partialRectangle;connectable=0;strokeColor=inherit;overflow=hidden;fillColor=none;top=0;left=0;bottom=0;right=0;pointerEvents=1;fontSize=18;html=1;fontFamily=Times New Roman;" vertex="1" parent="D1OQs9bCTMTkSIJRtyUW-266">
          <mxGeometry x="36" width="12" height="13" as="geometry">
            <mxRectangle width="12" height="13" as="alternateBounds" />
          </mxGeometry>
        </mxCell>
        <mxCell id="D1OQs9bCTMTkSIJRtyUW-271" value="" style="shape=partialRectangle;connectable=0;strokeColor=inherit;overflow=hidden;fillColor=#FFCC99;top=0;left=0;bottom=0;right=0;pointerEvents=1;fontSize=18;html=1;fontFamily=Times New Roman;" vertex="1" parent="D1OQs9bCTMTkSIJRtyUW-266">
          <mxGeometry x="48" width="12" height="13" as="geometry">
            <mxRectangle width="12" height="13" as="alternateBounds" />
          </mxGeometry>
        </mxCell>
        <mxCell id="D1OQs9bCTMTkSIJRtyUW-272" value="" style="shape=partialRectangle;connectable=0;strokeColor=inherit;overflow=hidden;fillColor=#FFCC99;top=0;left=0;bottom=0;right=0;pointerEvents=1;fontSize=18;html=1;fontFamily=Times New Roman;" vertex="1" parent="D1OQs9bCTMTkSIJRtyUW-266">
          <mxGeometry x="60" width="12" height="13" as="geometry">
            <mxRectangle width="12" height="13" as="alternateBounds" />
          </mxGeometry>
        </mxCell>
        <mxCell id="D1OQs9bCTMTkSIJRtyUW-273" value="" style="shape=partialRectangle;connectable=0;strokeColor=default;overflow=hidden;fillColor=#FF9933;top=0;left=0;bottom=0;right=0;pointerEvents=1;fontSize=18;html=1;fontFamily=Times New Roman;" vertex="1" parent="D1OQs9bCTMTkSIJRtyUW-266">
          <mxGeometry x="72" width="13" height="13" as="geometry">
            <mxRectangle width="13" height="13" as="alternateBounds" />
          </mxGeometry>
        </mxCell>
        <mxCell id="D1OQs9bCTMTkSIJRtyUW-274" value="" style="shape=partialRectangle;connectable=0;strokeColor=inherit;overflow=hidden;fillColor=none;top=0;left=0;bottom=0;right=0;pointerEvents=1;fontSize=18;html=1;fontFamily=Times New Roman;" vertex="1" parent="D1OQs9bCTMTkSIJRtyUW-266">
          <mxGeometry x="85" width="12" height="13" as="geometry">
            <mxRectangle width="12" height="13" as="alternateBounds" />
          </mxGeometry>
        </mxCell>
        <mxCell id="D1OQs9bCTMTkSIJRtyUW-275" value="" style="shape=tableRow;horizontal=0;startSize=0;swimlaneHead=0;swimlaneBody=0;strokeColor=inherit;top=0;left=0;bottom=0;right=0;collapsible=0;dropTarget=0;fillColor=none;points=[[0,0.5],[1,0.5]];portConstraint=eastwest;fontSize=18;html=1;fontFamily=Times New Roman;" vertex="1" parent="D1OQs9bCTMTkSIJRtyUW-211">
          <mxGeometry y="84" width="97.35347637814432" height="12" as="geometry" />
        </mxCell>
        <mxCell id="D1OQs9bCTMTkSIJRtyUW-276" value="" style="shape=partialRectangle;connectable=0;strokeColor=inherit;overflow=hidden;fillColor=none;top=0;left=0;bottom=0;right=0;pointerEvents=1;fontSize=18;html=1;fontFamily=Times New Roman;" vertex="1" parent="D1OQs9bCTMTkSIJRtyUW-275">
          <mxGeometry width="13" height="12" as="geometry">
            <mxRectangle width="13" height="12" as="alternateBounds" />
          </mxGeometry>
        </mxCell>
        <mxCell id="D1OQs9bCTMTkSIJRtyUW-277" value="" style="shape=partialRectangle;connectable=0;strokeColor=inherit;overflow=hidden;fillColor=none;top=0;left=0;bottom=0;right=0;pointerEvents=1;fontSize=18;html=1;fontFamily=Times New Roman;" vertex="1" parent="D1OQs9bCTMTkSIJRtyUW-275">
          <mxGeometry x="13" width="12" height="12" as="geometry">
            <mxRectangle width="12" height="12" as="alternateBounds" />
          </mxGeometry>
        </mxCell>
        <mxCell id="D1OQs9bCTMTkSIJRtyUW-278" value="" style="shape=partialRectangle;connectable=0;strokeColor=inherit;overflow=hidden;fillColor=none;top=0;left=0;bottom=0;right=0;pointerEvents=1;fontSize=18;html=1;fontFamily=Times New Roman;" vertex="1" parent="D1OQs9bCTMTkSIJRtyUW-275">
          <mxGeometry x="25" width="11" height="12" as="geometry">
            <mxRectangle width="11" height="12" as="alternateBounds" />
          </mxGeometry>
        </mxCell>
        <mxCell id="D1OQs9bCTMTkSIJRtyUW-279" value="" style="shape=partialRectangle;connectable=0;strokeColor=inherit;overflow=hidden;fillColor=none;top=0;left=0;bottom=0;right=0;pointerEvents=1;fontSize=18;html=1;fontFamily=Times New Roman;" vertex="1" parent="D1OQs9bCTMTkSIJRtyUW-275">
          <mxGeometry x="36" width="12" height="12" as="geometry">
            <mxRectangle width="12" height="12" as="alternateBounds" />
          </mxGeometry>
        </mxCell>
        <mxCell id="D1OQs9bCTMTkSIJRtyUW-280" value="" style="shape=partialRectangle;connectable=0;strokeColor=inherit;overflow=hidden;fillColor=#FF9933;top=0;left=0;bottom=0;right=0;pointerEvents=1;fontSize=18;html=1;fontFamily=Times New Roman;" vertex="1" parent="D1OQs9bCTMTkSIJRtyUW-275">
          <mxGeometry x="48" width="12" height="12" as="geometry">
            <mxRectangle width="12" height="12" as="alternateBounds" />
          </mxGeometry>
        </mxCell>
        <mxCell id="D1OQs9bCTMTkSIJRtyUW-281" value="" style="shape=partialRectangle;connectable=0;strokeColor=inherit;overflow=hidden;fillColor=none;top=0;left=0;bottom=0;right=0;pointerEvents=1;fontSize=18;html=1;fontFamily=Times New Roman;" vertex="1" parent="D1OQs9bCTMTkSIJRtyUW-275">
          <mxGeometry x="60" width="12" height="12" as="geometry">
            <mxRectangle width="12" height="12" as="alternateBounds" />
          </mxGeometry>
        </mxCell>
        <mxCell id="D1OQs9bCTMTkSIJRtyUW-282" value="" style="shape=partialRectangle;connectable=0;strokeColor=inherit;overflow=hidden;fillColor=none;top=0;left=0;bottom=0;right=0;pointerEvents=1;fontSize=18;html=1;fontFamily=Times New Roman;" vertex="1" parent="D1OQs9bCTMTkSIJRtyUW-275">
          <mxGeometry x="72" width="13" height="12" as="geometry">
            <mxRectangle width="13" height="12" as="alternateBounds" />
          </mxGeometry>
        </mxCell>
        <mxCell id="D1OQs9bCTMTkSIJRtyUW-283" value="" style="shape=partialRectangle;connectable=0;strokeColor=default;overflow=hidden;fillColor=#FFCC99;top=0;left=0;bottom=0;right=0;pointerEvents=1;fontSize=18;html=1;fontFamily=Times New Roman;" vertex="1" parent="D1OQs9bCTMTkSIJRtyUW-275">
          <mxGeometry x="85" width="12" height="12" as="geometry">
            <mxRectangle width="12" height="12" as="alternateBounds" />
          </mxGeometry>
        </mxCell>
        <mxCell id="D1OQs9bCTMTkSIJRtyUW-284" value="" style="line;strokeWidth=1;direction=south;html=1;fontFamily=Times New Roman;fontSize=18;" vertex="1" parent="D1OQs9bCTMTkSIJRtyUW-17">
          <mxGeometry x="92.92884834330744" y="21.86554827175206" width="4.77" height="76.87" as="geometry" />
        </mxCell>
        <mxCell id="D1OQs9bCTMTkSIJRtyUW-285" value="" style="line;strokeWidth=1;direction=south;html=1;fontFamily=Times New Roman;fontSize=18;" vertex="1" parent="D1OQs9bCTMTkSIJRtyUW-17">
          <mxGeometry x="80.07884834330753" y="1.8655482717520613" width="4.77" height="97" as="geometry" />
        </mxCell>
        <mxCell id="D1OQs9bCTMTkSIJRtyUW-286" value="" style="line;strokeWidth=1;direction=south;aspect=fixed;html=1;fontFamily=Times New Roman;fontSize=18;" vertex="1" parent="D1OQs9bCTMTkSIJRtyUW-17">
          <mxGeometry x="55.97884834330739" y="21.86554827175206" width="4.77" height="76.87" as="geometry" />
        </mxCell>
        <mxCell id="D1OQs9bCTMTkSIJRtyUW-287" value="" style="line;strokeWidth=1;direction=south;aspect=fixed;html=1;fontFamily=Times New Roman;fontSize=18;" vertex="1" parent="D1OQs9bCTMTkSIJRtyUW-17">
          <mxGeometry x="42.88" y="2" width="7.05" height="97" as="geometry" />
        </mxCell>
        <mxCell id="D1OQs9bCTMTkSIJRtyUW-288" value="" style="line;strokeWidth=1;direction=south;html=1;fontFamily=Times New Roman;fontSize=18;" vertex="1" parent="D1OQs9bCTMTkSIJRtyUW-17">
          <mxGeometry x="68.08677224736039" y="51.06459475566152" width="4.767673818907216" height="47.675804529201436" as="geometry" />
        </mxCell>
        <mxCell id="D1OQs9bCTMTkSIJRtyUW-289" value="" style="line;strokeWidth=1;direction=south;rotation=90;html=1;fontFamily=Times New Roman;fontSize=18;" vertex="1" parent="D1OQs9bCTMTkSIJRtyUW-17">
          <mxGeometry x="60.09884834330751" y="39.1955482717521" width="4.77" height="68.42" as="geometry" />
        </mxCell>
        <mxCell id="D1OQs9bCTMTkSIJRtyUW-290" value="" style="line;strokeWidth=1;direction=south;rotation=90;html=1;fontFamily=Times New Roman;fontSize=18;" vertex="1" parent="D1OQs9bCTMTkSIJRtyUW-17">
          <mxGeometry x="65.4688483433074" y="46.405548271752025" width="4.77" height="80" as="geometry" />
        </mxCell>
        <mxCell id="D1OQs9bCTMTkSIJRtyUW-291" value="" style="line;strokeWidth=1;direction=south;rotation=0;html=1;fontFamily=Times New Roman;fontSize=18;" vertex="1" parent="D1OQs9bCTMTkSIJRtyUW-17">
          <mxGeometry x="105.37884834330748" y="44.155548271752025" width="4.77" height="54.71" as="geometry" />
        </mxCell>
        <mxCell id="D1OQs9bCTMTkSIJRtyUW-292" value="" style="line;strokeWidth=1;direction=south;rotation=90;html=1;fontFamily=Times New Roman;fontSize=18;" vertex="1" parent="D1OQs9bCTMTkSIJRtyUW-17">
          <mxGeometry x="73.96289106213203" y="29.99427294398089" width="4.767673818907216" height="62.93206197854589" as="geometry" />
        </mxCell>
        <mxCell id="D1OQs9bCTMTkSIJRtyUW-293" value="" style="line;strokeWidth=1;direction=south;rotation=90;html=1;fontFamily=Times New Roman;fontSize=18;" vertex="1" parent="D1OQs9bCTMTkSIJRtyUW-17">
          <mxGeometry x="56.518848343307354" y="0.3655482717520613" width="4.77" height="97.87" as="geometry" />
        </mxCell>
        <mxCell id="D1OQs9bCTMTkSIJRtyUW-294" value="" style="line;strokeWidth=1;direction=south;rotation=90;html=1;fontFamily=Times New Roman;fontSize=18;" vertex="1" parent="D1OQs9bCTMTkSIJRtyUW-17">
          <mxGeometry x="53.4688483433074" y="-8.534451728247916" width="4.77" height="91.92" as="geometry" />
        </mxCell>
        <mxCell id="D1OQs9bCTMTkSIJRtyUW-295" value="" style="line;strokeWidth=1;direction=south;rotation=0;html=1;fontFamily=Times New Roman;fontSize=18;" vertex="1" parent="D1OQs9bCTMTkSIJRtyUW-17">
          <mxGeometry x="20.97884834330739" y="1.8655482717520613" width="4.767673818907216" height="50.53635280095352" as="geometry" />
        </mxCell>
        <mxCell id="D1OQs9bCTMTkSIJRtyUW-296" value="" style="line;strokeWidth=1;direction=south;rotation=0;aspect=fixed;html=1;fontFamily=Times New Roman;fontSize=18;" vertex="1" parent="D1OQs9bCTMTkSIJRtyUW-17">
          <mxGeometry x="32.97884834330739" y="1.8655482717520613" width="4.77" height="90" as="geometry" />
        </mxCell>
        <mxCell id="D1OQs9bCTMTkSIJRtyUW-297" value="" style="line;strokeWidth=1;direction=south;html=1;fontFamily=Times New Roman;fontSize=18;" vertex="1" parent="D1OQs9bCTMTkSIJRtyUW-17">
          <mxGeometry x="7.995011433853961" y="2.388790226460003" width="4.767673818907216" height="14.779499404052444" as="geometry" />
        </mxCell>
        <mxCell id="D1OQs9bCTMTkSIJRtyUW-298" value="" style="line;strokeWidth=1;direction=south;html=1;fontFamily=Times New Roman;fontSize=18;" vertex="1" parent="D1OQs9bCTMTkSIJRtyUW-17">
          <mxGeometry x="65.47000000000003" y="29.994999999999948" width="10" height="40" as="geometry" />
        </mxCell>
        <mxCell id="D1OQs9bCTMTkSIJRtyUW-299" value="" style="line;strokeWidth=1;direction=south;rotation=90;html=1;fontFamily=Times New Roman;fontSize=18;" vertex="1" parent="D1OQs9bCTMTkSIJRtyUW-17">
          <mxGeometry x="22.188376392740565" y="0.004999999999938609" width="4.767673818907216" height="28.84386174016687" as="geometry" />
        </mxCell>
        <mxCell id="D1OQs9bCTMTkSIJRtyUW-300" value="" style="line;strokeWidth=1;direction=south;rotation=90;html=1;fontFamily=Times New Roman;fontSize=18;" vertex="1" parent="D1OQs9bCTMTkSIJRtyUW-17">
          <mxGeometry x="32.353056974650826" y="1.8049999999998931" width="4.767673818907216" height="49.168057210965436" as="geometry" />
        </mxCell>
        <mxCell id="D1OQs9bCTMTkSIJRtyUW-301" value="" style="line;strokeWidth=1;direction=south;rotation=90;html=1;fontFamily=Times New Roman;fontSize=18;" vertex="1" parent="D1OQs9bCTMTkSIJRtyUW-17">
          <mxGeometry x="80.89985646864193" y="74.3049999999999" width="4.767673818907216" height="48.86769964243147" as="geometry" />
        </mxCell>
        <mxCell id="D1OQs9bCTMTkSIJRtyUW-302" value="" style="line;strokeWidth=1;direction=south;rotation=90;html=1;fontFamily=Times New Roman;fontSize=18;" vertex="1" parent="D1OQs9bCTMTkSIJRtyUW-17">
          <mxGeometry x="20.2199999999998" y="-10.064999999999998" width="4.77" height="24.9" as="geometry" />
        </mxCell>
        <mxCell id="D1OQs9bCTMTkSIJRtyUW-303" value="" style="line;strokeWidth=1;direction=south;html=1;fontFamily=Times New Roman;fontSize=18;" vertex="1" parent="D1OQs9bCTMTkSIJRtyUW-17">
          <mxGeometry x="8.049999999999955" y="37.18499999999989" width="4.77" height="12.82" as="geometry" />
        </mxCell>
        <mxCell id="D1OQs9bCTMTkSIJRtyUW-306" value="Multi-heads&lt;br&gt;Attention Matrix" style="text;align=center;verticalAlign=middle;resizable=0;points=[];autosize=1;strokeColor=none;fillColor=none;fontStyle=1;fontSize=18;html=1;fontFamily=Times New Roman;" vertex="1" parent="1">
          <mxGeometry x="900" y="-810" width="140" height="60" as="geometry" />
        </mxCell>
        <mxCell id="D1OQs9bCTMTkSIJRtyUW-310" value="" style="endArrow=blockThin;rounded=0;endFill=1;html=1;entryX=0.092;entryY=0.197;entryDx=0;entryDy=0;entryPerimeter=0;fontFamily=Times New Roman;fontSize=18;exitX=0.997;exitY=0.479;exitDx=0;exitDy=0;exitPerimeter=0;strokeColor=#9A9A9A;" edge="1" parent="1" target="D1OQs9bCTMTkSIJRtyUW-424" source="D1OQs9bCTMTkSIJRtyUW-340">
          <mxGeometry width="50" height="50" relative="1" as="geometry">
            <mxPoint x="1087" y="-532" as="sourcePoint" />
            <mxPoint x="1087" y="-631" as="targetPoint" />
            <Array as="points">
              <mxPoint x="690" y="-690" />
              <mxPoint x="690" y="-700" />
            </Array>
          </mxGeometry>
        </mxCell>
        <mxCell id="D1OQs9bCTMTkSIJRtyUW-311" value="" style="shadow=0;dashed=0;align=center;verticalAlign=middle;shape=mxgraph.arrows2.arrow;dy=0.64;dx=14.96;flipH=1;notch=0;rotation=0;html=1;fontFamily=Times New Roman;fontSize=18;" vertex="1" parent="1">
          <mxGeometry x="1336.98" y="-681.48" width="24.98" height="23" as="geometry" />
        </mxCell>
        <mxCell id="D1OQs9bCTMTkSIJRtyUW-365" value="$$h_1$$" style="text;align=center;verticalAlign=middle;resizable=0;points=[];autosize=1;strokeColor=none;fillColor=none;html=1;fontSize=18;fontFamily=Times New Roman;flipV=0;" vertex="1" parent="1">
          <mxGeometry x="590.0999999999999" y="-764" width="90" height="40" as="geometry" />
        </mxCell>
        <mxCell id="D1OQs9bCTMTkSIJRtyUW-368" value="" style="group;rotation=90;" vertex="1" connectable="0" parent="1">
          <mxGeometry x="579.9950000000001" y="-768.005" width="26" height="48" as="geometry" />
        </mxCell>
        <mxCell id="D1OQs9bCTMTkSIJRtyUW-318" value="" style="rounded=0;rotation=0;html=1;fontSize=18;fontFamily=Times New Roman;container=0;" vertex="1" parent="D1OQs9bCTMTkSIJRtyUW-368">
          <mxGeometry x="-11" y="11" width="48" height="26" as="geometry" />
        </mxCell>
        <mxCell id="D1OQs9bCTMTkSIJRtyUW-319" value="" style="ellipse;aspect=fixed;shadow=0;rotation=0;html=1;fontSize=18;fontFamily=Times New Roman;container=0;" vertex="1" parent="D1OQs9bCTMTkSIJRtyUW-368">
          <mxGeometry x="-7" y="15" width="18.95734597156398" height="18.95734597156398" as="geometry" />
        </mxCell>
        <mxCell id="D1OQs9bCTMTkSIJRtyUW-320" value="" style="ellipse;aspect=fixed;shadow=0;rotation=0;html=1;fontSize=18;fontFamily=Times New Roman;container=0;" vertex="1" parent="D1OQs9bCTMTkSIJRtyUW-368">
          <mxGeometry x="15" y="15" width="18.95734597156398" height="18.95734597156398" as="geometry" />
        </mxCell>
        <mxCell id="D1OQs9bCTMTkSIJRtyUW-394" value="$$h_2$$" style="text;align=center;verticalAlign=middle;resizable=0;points=[];autosize=1;strokeColor=none;fillColor=none;html=1;fontSize=18;fontFamily=Times New Roman;flipV=0;" vertex="1" parent="1">
          <mxGeometry x="590.0999999999999" y="-726.48" width="90" height="40" as="geometry" />
        </mxCell>
        <mxCell id="D1OQs9bCTMTkSIJRtyUW-395" value="" style="group;rotation=90;" vertex="1" connectable="0" parent="1">
          <mxGeometry x="579.9950000000001" y="-730.485" width="26" height="48" as="geometry" />
        </mxCell>
        <mxCell id="D1OQs9bCTMTkSIJRtyUW-396" value="" style="rounded=0;rotation=0;html=1;fontSize=18;fontFamily=Times New Roman;container=0;" vertex="1" parent="D1OQs9bCTMTkSIJRtyUW-395">
          <mxGeometry x="-11" y="11" width="48" height="26" as="geometry" />
        </mxCell>
        <mxCell id="D1OQs9bCTMTkSIJRtyUW-397" value="" style="ellipse;aspect=fixed;shadow=0;rotation=0;html=1;fontSize=18;fontFamily=Times New Roman;container=0;" vertex="1" parent="D1OQs9bCTMTkSIJRtyUW-395">
          <mxGeometry x="-7" y="15" width="18.95734597156398" height="18.95734597156398" as="geometry" />
        </mxCell>
        <mxCell id="D1OQs9bCTMTkSIJRtyUW-398" value="" style="ellipse;aspect=fixed;shadow=0;rotation=0;html=1;fontSize=18;fontFamily=Times New Roman;container=0;" vertex="1" parent="D1OQs9bCTMTkSIJRtyUW-395">
          <mxGeometry x="15" y="15" width="18.95734597156398" height="18.95734597156398" as="geometry" />
        </mxCell>
        <mxCell id="D1OQs9bCTMTkSIJRtyUW-399" value="$$h_3$$" style="text;align=center;verticalAlign=middle;resizable=0;points=[];autosize=1;strokeColor=none;fillColor=none;html=1;fontSize=18;fontFamily=Times New Roman;flipV=0;" vertex="1" parent="1">
          <mxGeometry x="590.0999999999999" y="-689.48" width="90" height="40" as="geometry" />
        </mxCell>
        <mxCell id="D1OQs9bCTMTkSIJRtyUW-400" value="" style="group;rotation=90;" vertex="1" connectable="0" parent="1">
          <mxGeometry x="579.9950000000001" y="-693.485" width="26" height="48" as="geometry" />
        </mxCell>
        <mxCell id="D1OQs9bCTMTkSIJRtyUW-401" value="" style="rounded=0;rotation=0;html=1;fontSize=18;fontFamily=Times New Roman;container=0;" vertex="1" parent="D1OQs9bCTMTkSIJRtyUW-400">
          <mxGeometry x="-11" y="11" width="48" height="26" as="geometry" />
        </mxCell>
        <mxCell id="D1OQs9bCTMTkSIJRtyUW-402" value="" style="ellipse;aspect=fixed;shadow=0;rotation=0;html=1;fontSize=18;fontFamily=Times New Roman;container=0;fillColor=#f8cecc;strokeColor=#b85450;" vertex="1" parent="D1OQs9bCTMTkSIJRtyUW-400">
          <mxGeometry x="-7" y="15" width="18.95734597156398" height="18.95734597156398" as="geometry" />
        </mxCell>
        <mxCell id="D1OQs9bCTMTkSIJRtyUW-403" value="" style="ellipse;aspect=fixed;shadow=0;rotation=0;html=1;fontSize=18;fontFamily=Times New Roman;container=0;fillColor=#f8cecc;strokeColor=#b85450;" vertex="1" parent="D1OQs9bCTMTkSIJRtyUW-400">
          <mxGeometry x="15" y="15" width="18.95734597156398" height="18.95734597156398" as="geometry" />
        </mxCell>
        <mxCell id="D1OQs9bCTMTkSIJRtyUW-405" value="" style="group;rotation=90;" vertex="1" connectable="0" parent="1">
          <mxGeometry x="579.9950000000001" y="-730.485" width="79.68499999999997" height="81.005" as="geometry" />
        </mxCell>
        <mxCell id="D1OQs9bCTMTkSIJRtyUW-406" value="" style="rounded=0;rotation=0;html=1;fontSize=18;fontFamily=Times New Roman;container=0;" vertex="1" parent="D1OQs9bCTMTkSIJRtyUW-405">
          <mxGeometry x="-11" y="11" width="48" height="26" as="geometry" />
        </mxCell>
        <mxCell id="D1OQs9bCTMTkSIJRtyUW-407" value="" style="ellipse;aspect=fixed;shadow=0;rotation=0;html=1;fontSize=18;fontFamily=Times New Roman;container=0;fillColor=#f8cecc;strokeColor=#b85450;" vertex="1" parent="D1OQs9bCTMTkSIJRtyUW-405">
          <mxGeometry x="-7" y="15" width="18.95734597156398" height="18.95734597156398" as="geometry" />
        </mxCell>
        <mxCell id="D1OQs9bCTMTkSIJRtyUW-408" value="" style="ellipse;aspect=fixed;shadow=0;rotation=0;html=1;fontSize=18;fontFamily=Times New Roman;container=0;fillColor=#f8cecc;strokeColor=#b85450;" vertex="1" parent="D1OQs9bCTMTkSIJRtyUW-405">
          <mxGeometry x="15" y="15" width="18.95734597156398" height="18.95734597156398" as="geometry" />
        </mxCell>
        <mxCell id="D1OQs9bCTMTkSIJRtyUW-340" value="" style="rounded=1;fillColor=none;strokeColor=#737373;html=1;fontSize=18;fontFamily=Times New Roman;" vertex="1" parent="D1OQs9bCTMTkSIJRtyUW-405">
          <mxGeometry x="-30.725000000000023" y="7.0049999999999955" width="110.41" height="70" as="geometry" />
        </mxCell>
        <mxCell id="D1OQs9bCTMTkSIJRtyUW-409" value="$$h_4$$" style="text;align=center;verticalAlign=middle;resizable=0;points=[];autosize=1;strokeColor=none;fillColor=none;html=1;fontSize=18;fontFamily=Times New Roman;flipV=0;" vertex="1" parent="1">
          <mxGeometry x="590.0999999999999" y="-651.48" width="90" height="40" as="geometry" />
        </mxCell>
        <mxCell id="D1OQs9bCTMTkSIJRtyUW-410" value="" style="group;rotation=90;" vertex="1" connectable="0" parent="1">
          <mxGeometry x="579.9950000000001" y="-655.485" width="26" height="48" as="geometry" />
        </mxCell>
        <mxCell id="D1OQs9bCTMTkSIJRtyUW-411" value="" style="rounded=0;rotation=0;html=1;fontSize=18;fontFamily=Times New Roman;container=0;" vertex="1" parent="D1OQs9bCTMTkSIJRtyUW-410">
          <mxGeometry x="-11" y="11" width="48" height="26" as="geometry" />
        </mxCell>
        <mxCell id="D1OQs9bCTMTkSIJRtyUW-412" value="" style="ellipse;aspect=fixed;shadow=0;rotation=0;html=1;fontSize=18;fontFamily=Times New Roman;container=0;" vertex="1" parent="D1OQs9bCTMTkSIJRtyUW-410">
          <mxGeometry x="-7" y="15" width="18.95734597156398" height="18.95734597156398" as="geometry" />
        </mxCell>
        <mxCell id="D1OQs9bCTMTkSIJRtyUW-413" value="" style="ellipse;aspect=fixed;shadow=0;rotation=0;html=1;fontSize=18;fontFamily=Times New Roman;container=0;" vertex="1" parent="D1OQs9bCTMTkSIJRtyUW-410">
          <mxGeometry x="15" y="15" width="18.95734597156398" height="18.95734597156398" as="geometry" />
        </mxCell>
        <mxCell id="D1OQs9bCTMTkSIJRtyUW-414" value="$$h_5$$" style="text;align=center;verticalAlign=middle;resizable=0;points=[];autosize=1;strokeColor=none;fillColor=none;html=1;fontSize=18;fontFamily=Times New Roman;flipV=0;" vertex="1" parent="1">
          <mxGeometry x="590.0999999999999" y="-614.47" width="90" height="40" as="geometry" />
        </mxCell>
        <mxCell id="D1OQs9bCTMTkSIJRtyUW-415" value="" style="group;rotation=90;" vertex="1" connectable="0" parent="1">
          <mxGeometry x="579.9950000000001" y="-618.475" width="26" height="48" as="geometry" />
        </mxCell>
        <mxCell id="D1OQs9bCTMTkSIJRtyUW-416" value="" style="rounded=0;rotation=0;html=1;fontSize=18;fontFamily=Times New Roman;container=0;" vertex="1" parent="D1OQs9bCTMTkSIJRtyUW-415">
          <mxGeometry x="-11" y="11" width="48" height="26" as="geometry" />
        </mxCell>
        <mxCell id="D1OQs9bCTMTkSIJRtyUW-417" value="" style="ellipse;aspect=fixed;shadow=0;rotation=0;html=1;fontSize=18;fontFamily=Times New Roman;container=0;" vertex="1" parent="D1OQs9bCTMTkSIJRtyUW-415">
          <mxGeometry x="-7" y="15" width="18.95734597156398" height="18.95734597156398" as="geometry" />
        </mxCell>
        <mxCell id="D1OQs9bCTMTkSIJRtyUW-418" value="" style="ellipse;aspect=fixed;shadow=0;rotation=0;html=1;fontSize=18;fontFamily=Times New Roman;container=0;" vertex="1" parent="D1OQs9bCTMTkSIJRtyUW-415">
          <mxGeometry x="15" y="15" width="18.95734597156398" height="18.95734597156398" as="geometry" />
        </mxCell>
        <mxCell id="D1OQs9bCTMTkSIJRtyUW-419" value="$$h_6$$" style="text;align=center;verticalAlign=middle;resizable=0;points=[];autosize=1;strokeColor=none;fillColor=none;html=1;fontSize=18;fontFamily=Times New Roman;flipV=0;" vertex="1" parent="1">
          <mxGeometry x="590.0999999999999" y="-576.47" width="90" height="40" as="geometry" />
        </mxCell>
        <mxCell id="D1OQs9bCTMTkSIJRtyUW-420" value="" style="group;rotation=90;" vertex="1" connectable="0" parent="1">
          <mxGeometry x="579.9950000000001" y="-580.475" width="26" height="48" as="geometry" />
        </mxCell>
        <mxCell id="D1OQs9bCTMTkSIJRtyUW-421" value="" style="rounded=0;rotation=0;html=1;fontSize=18;fontFamily=Times New Roman;container=0;" vertex="1" parent="D1OQs9bCTMTkSIJRtyUW-420">
          <mxGeometry x="-11" y="11" width="48" height="26" as="geometry" />
        </mxCell>
        <mxCell id="D1OQs9bCTMTkSIJRtyUW-422" value="" style="ellipse;aspect=fixed;shadow=0;rotation=0;html=1;fontSize=18;fontFamily=Times New Roman;container=0;" vertex="1" parent="D1OQs9bCTMTkSIJRtyUW-420">
          <mxGeometry x="-7" y="15" width="18.95734597156398" height="18.95734597156398" as="geometry" />
        </mxCell>
        <mxCell id="D1OQs9bCTMTkSIJRtyUW-423" value="" style="ellipse;aspect=fixed;shadow=0;rotation=0;html=1;fontSize=18;fontFamily=Times New Roman;container=0;" vertex="1" parent="D1OQs9bCTMTkSIJRtyUW-420">
          <mxGeometry x="15" y="15" width="18.95734597156398" height="18.95734597156398" as="geometry" />
        </mxCell>
        <mxCell id="D1OQs9bCTMTkSIJRtyUW-10" value="Aspect-aware&lt;br&gt;Attention" style="rounded=1;fillColor=#B1CBF2;strokeColor=#6c8ebf;fontStyle=1;fontSize=18;aspect=fixed;html=1;fontFamily=Times New Roman;" vertex="1" parent="1">
          <mxGeometry x="708.9986572928012" y="-720.0060869565217" width="109.56134270719873" height="43.824537082879495" as="geometry" />
        </mxCell>
        <mxCell id="D1OQs9bCTMTkSIJRtyUW-4" value="Self-Attention" style="rounded=1;fillColor=#B1CBF2;strokeColor=#6c8ebf;fontStyle=1;fontSize=18;aspect=fixed;html=1;fontFamily=Times New Roman;" vertex="1" parent="1">
          <mxGeometry x="708.9986572928012" y="-624.2960869565218" width="109.56134270719873" height="43.824537082879495" as="geometry" />
        </mxCell>
        <mxCell id="D1OQs9bCTMTkSIJRtyUW-424" value="" style="rounded=1;fillColor=none;strokeColor=#737373;html=1;fontSize=18;fontFamily=Times New Roman;" vertex="1" parent="1">
          <mxGeometry x="698" y="-734.09" width="130" height="173.09" as="geometry" />
        </mxCell>
        <mxCell id="D1OQs9bCTMTkSIJRtyUW-425" value="" style="endArrow=blockThin;html=1;rounded=0;endFill=1;" edge="1" parent="1">
          <mxGeometry width="50" height="50" relative="1" as="geometry">
            <mxPoint x="668" y="-650.49" as="sourcePoint" />
            <mxPoint x="688" y="-650.49" as="targetPoint" />
          </mxGeometry>
        </mxCell>
        <mxCell id="D1OQs9bCTMTkSIJRtyUW-304" value="Top-&amp;nbsp; &amp;nbsp; Selection" style="text;align=center;verticalAlign=middle;resizable=0;points=[];autosize=1;strokeColor=none;fillColor=none;fontStyle=1;fontSize=18;html=1;fontFamily=Times New Roman;" vertex="1" parent="1">
          <mxGeometry x="1074.99857048684" y="-799.998629868191" width="140" height="40" as="geometry" />
        </mxCell>
        <mxCell id="D1OQs9bCTMTkSIJRtyUW-426" value="GCN" style="text;align=center;verticalAlign=middle;resizable=0;points=[];autosize=1;strokeColor=none;fillColor=none;fontStyle=1;fontSize=18;html=1;fontFamily=Times New Roman;" vertex="1" parent="1">
          <mxGeometry x="1255.99857048684" y="-799.998629868191" width="60" height="40" as="geometry" />
        </mxCell>
        <mxCell id="D1OQs9bCTMTkSIJRtyUW-305" value="$$k$$" style="text;html=1;align=center;verticalAlign=middle;whiteSpace=wrap;rounded=0;fillColor=none;fontSize=18;fontFamily=Times New Roman;" vertex="1" parent="1">
          <mxGeometry x="1120" y="-790" width="10" height="20" as="geometry" />
        </mxCell>
      </root>
    </mxGraphModel>
  </diagram>
</mxfile>
